<?xml version="1.0" encoding="utf-8"?>
<svg id="svg2955" viewBox="0 0 325.04 339.77" version="1.0" xmlns="http://www.w3.org/2000/svg">
  <defs>
    <path id="path-0" d="M 13.133 193.61 C 23.522 180.679 26.989 169.586 34.74 161.836 C 36.961 156.121 38.288 151.191 39.823 146.584 C 40.373 144.936 43.636 141.713 43.636 140.229 C 43.636 133.382 48.624 119.99 52.533 116.081 C 57.376 107.667 64.496 95.484 71.597 91.933 C 81.253 87.105 86.161 80.203 93.204 76.681 C 102.596 75.41 115.86 63.271 122.436 58.888 C 138.277 51.913 149.255 45.828 163.107 42.365 C 180.19 39.048 193.875 39.823 207.59 39.823 L 210.132 39.823 C 211.849 39.823 219.029 39.342 219.029 41.094" style="fill: none;"/>
  </defs>
  <g id="layer1" transform="matrix(0.711782, 0, 0, 0.669117, 134.015305, -147.189102)" style="">
    <circle style="fill: rgb(255, 255, 255);" cx="36.836" cy="424.324" r="183.415" transform="matrix(0.615455, 0, 0, 0.637538, 19.009787, 192.600616)"/>
    <path id="path2979" style="" d="M 58.297 545.041 C 54.087 543.568 50.843 539.49 55.264 535.784 C 57.738 533.776 64.102 529.95 61.752 526.96 C 60.348 528.017 61.492 521.793 62.447 520.595 C 62.669 518.531 62.61 515.701 61.687 519.171 C 61.123 516.068 60.445 513.347 58.275 511.043 C 56.875 512.094 57.554 518.931 55.704 517.075 C 55.345 513.347 58.514 509.899 57.163 506.067 C 56.159 502.487 57.597 509.576 55.459 509.297 C 54.505 505.985 57.483 501.781 55.937 498.387 C 55.361 496.882 56.686 494.698 54.314 495.108 C 54.336 493.04 56.208 488.759 55.574 488.151 C 54.955 489.935 52.454 493.828 53.219 489.574 C 55.671 484.894 49.622 491.961 51.445 488.31 C 52.676 487.04 56.821 482.009 52.742 485.529 C 51.022 484.999 55.91 481.068 55.926 478.966 C 57.76 477.598 59.094 473.339 59.056 471.79 C 56.81 475.403 55.476 480.072 51.537 482.321 C 52.47 480.455 52.139 477.16 51.809 475.178 C 54.26 474.456 51.147 471.834 54.722 471.462 C 56.762 470.236 58.395 466.086 57.846 464.663 C 56.957 466.738 53.626 471.539 51.836 470.405 C 55.286 468.67 52.085 467.866 50.701 466.098 C 51.271 466.108 55.004 466.42 53.675 463.859 C 50.398 462.715 48.374 460.399 44.989 459.682 C 47.68 458.675 52.666 463.629 53.306 461.231 C 51.087 460.059 45.179 456.469 50.43 455.336 C 52.953 453.491 43.785 456.956 48.223 454.285 C 50.392 454.186 55.904 447.475 51.331 450.908 C 48.852 451.959 46.617 456.562 43.693 454.608 C 44.929 454.312 48.993 451.827 46.362 451.86 C 44.463 453.152 41.816 446.813 42.358 451.668 C 40.828 454.575 40.828 446.95 39.987 450.765 C 38.441 454.367 40.318 447.251 38.571 447.65 C 37.161 447.399 36.602 442.921 36.396 446.862 C 38.24 448.351 37.958 451.581 38.43 452.796 C 35.457 454.624 37.275 446.709 36.022 451.411 C 36.331 453.415 35.886 455.062 34.703 455.725 C 37.383 458.872 31.6 462.041 32.935 465.085 C 33.168 468.259 30.434 472.595 30.71 474.987 C 33.607 473.022 28.898 478.436 28.763 479.601 C 25.415 479.59 29.967 473.744 29.349 472.584 C 28.757 474.182 24.352 477.22 26.229 474.336 C 29.701 472.644 22.253 470.558 27.689 470.29 C 28.817 468.993 26.441 467.471 29.18 466.431 C 30.119 465.161 25.633 466.497 28.226 464.624 C 28.99 461.964 28.757 460.739 26.935 459.217 C 31.746 457.564 22.052 457.651 25.464 454.64 C 25.323 452.95 18.895 453.552 21.732 451.115 C 19.98 449.725 21.282 447.191 19.323 445.291 C 19.79 441.022 16.687 447.656 14.604 445.45 C 14.278 441.498 18.461 438.268 20.902 435.553 C 27.51 436.697 16.6 443.14 21.803 444.17 C 23.729 443.846 19.632 441.46 22.877 442.303 C 25.774 443.14 27.629 447.289 30.07 446.906 C 30.553 448.269 32.533 450.328 32.409 447.513 C 36.19 451.969 35.36 444.174 32.484 443.151 C 31.372 441.733 34.34 436.659 31.714 440.704 C 28.904 442.976 32.246 434.941 27.971 435.592 C 23.593 433.479 18.753 432.986 13.963 433.211 C 8.142 431.618 23.327 432.981 17.208 430.6 C 13.416 429.625 7.985 430.353 5.218 427.912 C 8.642 427.731 13.09 429.658 15.921 429.105 C 11.658 427.408 7.963 424.042 5.451 420.232 C 6.482 419.488 8.544 422.657 9.146 419.488 C 11.131 416.893 12.916 418.393 9.998 420.199 C 7.345 423.254 13.714 423.768 15.873 424.951 C 16.182 422.909 15.921 420.051 15.211 417.862 C 14.983 414.342 16.383 414.939 16.057 417.84 C 15.651 420.413 18.596 411.722 17.761 416.849 C 15.721 421.064 20.495 423.61 23.413 425.487 C 25.839 426.981 29.707 429.039 30.645 426.133 C 31.66 428.273 37.491 427.375 36.499 429.926 C 35.414 427.704 30.45 429.445 34.649 430.654 C 35.636 432.165 30.867 430.791 33.147 433.55 C 35.962 435.438 38.099 432.22 39.2 429.587 C 39.255 427.939 36.276 426.155 37.264 424.036 C 35.533 424.085 33.613 428.809 32.506 426.242 C 29.148 422.394 33.564 418.71 33.716 415.059 C 33.076 413.313 29.994 408.079 33.39 411.972 C 37.052 415.169 32.88 408.058 31.535 406.916 C 30.016 405.702 28.703 400.986 31.34 404.748 C 33.455 407.329 36.033 413.735 38.967 408.996 C 41.126 407.367 37.307 405.472 40.35 405.132 C 39.841 402.341 41.403 400.547 42.282 400.187 C 40.432 397.767 42.575 396.724 42.564 393.853 C 45.174 394.521 43.101 390.234 44.566 388.5 C 45.402 386.88 45.857 385.793 45.689 383.517 C 47.539 382.877 46.644 387.973 47.387 383.985 C 45.77 381.022 48.277 377.496 49.308 375.41 C 51.114 372.061 53.051 367.529 56.029 364.266 C 57.249 362.925 59.897 359.107 60.326 361.845 C 64.487 360.359 55.383 366.047 58.828 365.797 C 57.222 367.742 58.139 374.4 59.74 368.927 C 60.933 367.393 62.36 362.985 64.058 363.557 C 61.036 367.31 59.604 371.91 58.449 376.578 C 57.538 381.865 62.479 372.759 60.738 377.416 C 58.66 379.019 58.259 381.834 60.846 382.479 C 59.252 384.961 60.326 385.283 62.539 384.882 C 61.758 386.233 59.322 386.667 58.27 387.71 C 58.677 386.161 59.377 380.982 58.112 385.224 C 57.619 386.861 54.95 391.502 57.738 390.98 C 57.027 393.169 54.184 395.085 55.08 391.287 C 55.774 388.907 57.336 382.258 55.953 381.973 C 54.906 384.077 55.155 390.073 53.495 389.875 C 54.006 387.821 55.02 379.554 53.159 385.631 C 52.975 388.978 52.286 392.115 51.847 395.327 C 51.428 398.055 55.161 388.286 53.946 393.311 C 51.901 398.372 58.785 391.482 56.984 396.277 C 56.68 398.083 60.559 397.207 57.049 398.106 C 54.271 398.095 53.686 403.408 56.556 402.299 C 54.298 403.007 52.02 407.628 49.997 404.278 C 49.313 408.464 54.087 408.562 56.881 406.16 C 59.05 405.072 54.966 409.045 58.036 407.696 C 60.407 407.096 61.15 402.43 61.036 406.91 C 61.194 408.92 62.132 403.278 63 402.801 C 63.635 402.656 63.364 405.56 64.113 402.827 C 63.516 399.975 67.042 398.077 66.591 395.404 C 68.485 392.481 68.925 387.943 70.65 385.895 C 69.586 383.217 72.928 382.701 72.071 379.614 C 74.583 377.298 72.933 372.377 76.08 370.124 C 77.523 367.649 78.331 364.369 79.552 362.15 C 80.626 365.372 82.628 358.415 82.824 362.5 C 82.78 366.481 85.628 356.108 86.002 360.562 C 84.196 362.296 86.203 363.875 87.592 363.085 C 86.599 364.303 86.963 366.634 87.152 367.41 C 91.769 365.211 87.261 369.31 87.282 371.266 C 88.867 368.568 89.67 374.889 87.527 375.67 C 86.822 377.191 90.038 377.893 87.31 378.813 C 85.861 380.888 89.648 381.146 86.805 383.047 C 89.046 385.964 83.914 388.129 86.692 390.009 C 86.311 391.494 82.97 394.551 86.062 393.647 C 85.981 395.634 80.062 400.333 84.88 399.594 C 83.398 401.596 80.203 402.753 80.236 405.05 C 84.445 405.105 76.46 407.725 78.283 410.247 C 77.035 411.061 73.46 413.1 77.024 413.018 C 76.747 414.89 70.829 414.698 74.529 416.247 C 72.369 417.84 73.628 422.142 76.2 421.666 C 74.577 422.569 70.623 423.68 74.973 424.141 C 76.08 423.642 78.776 420.861 77.16 423.878 C 75.673 425.602 72.478 426.719 75.657 428.848 C 72.033 427.644 72.228 428.312 75.022 430.009 C 77.371 428.859 79.617 427.184 81.689 425.585 C 83.311 426.686 75.462 430.692 80.74 428.804 C 82.411 428.497 88.286 423.982 86.17 427.468 C 82.78 430.009 77.843 429.762 74.854 432.614 C 76.113 436.26 82.254 432.182 85.183 431.234 C 84.939 434.535 79.075 434.245 76.335 435.033 C 74.339 435.958 71.425 436.588 75.261 438.143 C 76.948 439.21 84.244 435.372 79.536 438.641 C 77.187 438.548 74.393 441.558 75.473 442.768 C 78.256 441.186 77.941 443.047 79.042 444.618 C 80.03 442.084 80.545 443.753 80.512 445.242 C 82.275 441.367 86.094 439.702 87.771 435.482 C 88.379 432.674 89.399 434.415 89.241 435.948 C 90.011 433.912 92.1 431.695 94.043 432.74 C 93.022 435.187 97.135 428.475 97.156 432.488 C 100.01 430.95 102.272 435.066 104.187 435.187 C 106.227 433.769 108.088 431.946 109.998 430.512 C 113.665 430.551 114.988 426.478 117.826 427.852 C 119.567 426.27 123.711 424.064 121.645 428.465 C 118.444 439.319 111.267 448.187 104.854 457.235 C 103.932 458.593 99.657 464.805 103.335 461.319 C 109.65 453.359 115.406 444.897 120.311 435.98 C 121.672 432.209 123.967 427.677 122.583 424.157 C 127.536 422.23 123.945 430.441 123.045 432.652 C 121.704 439.019 117.315 444.087 113.941 449.462 C 108.055 457.859 101.898 466.344 93.83 472.737 C 89.849 475.813 89.176 471.227 91.574 468.588 C 92.339 461.866 91.433 454.706 94.579 448.439 C 96.115 446.315 95.729 445.313 93.765 444.333 C 93.928 442.538 90.446 439.74 92.361 442.757 C 89.973 444.267 94.552 445.932 90.245 446.49 C 90.267 447.722 90.549 448.619 88.205 449.013 C 87.304 449.802 91.368 450.508 88.134 450.924 C 85.129 451.274 90.473 453.174 86.127 453.075 C 88.905 455.544 82.432 453.579 84.804 456.814 C 84.277 457.394 80.593 455.91 82.981 457.881 C 85.373 458.921 78.934 459.31 82.4 461.664 C 83.626 463.678 84.712 466.223 83.035 467.832 C 85.683 469.288 83.154 472.162 82.525 468.605 C 79.943 468.276 86.681 473.925 82.46 474.078 C 83.854 474.713 86.051 479.979 83.393 477.138 C 83.393 479.158 86.387 480.253 83.833 481.024 C 84.196 483.137 85.476 483.876 86.507 481.999 C 86.99 484.593 87.592 483.734 89.383 482.579 C 88.899 484.801 88.384 486.635 90.397 483.816 C 92.122 483.274 98.16 484.232 93.581 486.411 C 91.433 487.877 89.897 486.35 91.932 484.56 C 90.294 485.448 85.574 489.947 88.026 490.379 C 89.377 486.099 90.706 491.413 88.199 491.923 C 87.906 494.178 84.445 495.596 88.661 495.147 C 92.409 496.669 81.782 498.294 87.25 500.566 C 85.476 499.061 90.239 497.325 88.753 500.654 C 88.493 502.679 89.513 505.241 86.648 502.761 C 82.91 500.254 87.82 506.259 86.197 508.038 C 87.152 508.021 89.8 504.168 88.341 507.523 C 87.093 509.029 85.281 512.274 88.281 510.878 C 89.93 513.758 89.268 506.122 90.218 508.218 C 91.482 509.839 91.856 513.977 93.348 513.9 C 92.995 512.274 92.355 505.58 93.651 510.271 C 92.816 513.627 97.113 514.656 94.498 516.998 C 92.561 514.803 92.968 519.15 95.523 517.595 C 106.042 516.571 116.616 516.128 127.151 515.46 C 129.978 516.588 123.023 516.78 121.721 516.905 C 112.634 517.639 103.428 517.507 94.406 518.635 C 104.572 519.363 114.815 518.29 124.992 518.941 C 122.589 520.157 115.813 519.275 114.321 520.141 C 117.479 520.677 123.793 519.598 125.22 520.967 C 121.178 521.909 116.535 521.109 112.824 522.636 C 114.961 523.49 121.07 522.04 121.184 523.594 C 110.323 524.497 99.434 525.192 88.607 526.457 C 86.578 526.402 81.348 528.647 86.252 528.395 C 93.218 527.946 100.221 527.191 107.204 527.667 C 105.278 529.364 98.735 528.039 95.052 528.926 C 90.25 529.326 85.427 529.572 80.62 529.823 C 79.622 531.433 76.872 531.701 76.563 532.653 C 75.586 533.978 71.501 534.761 69.63 536.535 C 73.59 537.602 62.29 537.596 67.606 538.456 C 71.794 538.199 69.288 539.572 66.977 539.95 C 64.151 541.554 71.93 540.311 67.47 542.079 C 64.075 542.15 62.165 546.721 58.297 545.041 Z M 63.402 541.904 C 63.765 540.306 64.905 536.042 63.759 535.719 C 62.566 537.427 60.206 539.584 62.192 536.069 C 64.216 534.772 63.77 532.32 61.882 535.369 C 59.165 534.755 53.295 539.709 56.621 540.984 C 57.233 538.73 59.203 535.954 58.395 540.169 C 58.155 544.866 61.188 537.717 61.091 541.083 C 59.924 543.152 62.485 544.105 63.402 541.904 Z M 69.103 533.015 C 66.607 531.602 65.566 536.835 68.165 533.765 L 68.593 533.414 L 69.103 533.015 Z M 65.403 531.438 C 66.326 528.805 61.758 534.137 65.403 531.438 Z M 68.436 529.823 C 69.326 525.987 65.647 534.044 68.436 529.823 Z M 66.977 528.46 C 65.566 526.627 65.957 531.197 66.977 528.46 Z M 68.604 526.271 C 67.297 524.985 67.259 528.319 68.604 526.271 Z M 63.581 524.07 C 65.284 521.968 63.331 515.668 63.142 521.301 C 62.322 522.461 60.738 528.16 63.581 524.07 Z M 66.749 522.697 C 68.322 520.343 64.492 515.466 64.85 520.425 C 65.279 522.477 63.391 527.705 66.358 524.005 L 66.586 523.381 L 66.749 522.697 Z M 65.485 521.104 C 65.789 516.812 65.849 525.001 65.485 521.104 Z M 75.521 524.793 C 74.279 521.815 68.013 525.669 72.792 524.246 C 74.621 523.26 73.661 527.552 75.521 524.793 Z M 70.188 523.365 C 69.006 523.08 67.248 526.233 69.988 524.07 L 70.188 523.365 Z M 77.333 521.328 C 75.895 517.36 77.637 526.714 77.512 521.848 L 77.333 521.328 Z M 72.619 522.143 C 73.449 520.119 70.596 514.869 71.414 519.894 C 72.006 520.781 70.991 524.47 72.619 522.143 Z M 75.005 522.363 C 76.893 520.447 74.235 516.041 74.534 520.753 C 73.953 521.7 72.13 523.912 75.005 522.363 Z M 89.892 522.631 C 85.71 522.33 88.27 523.309 89.892 522.631 Z M 69.933 521.788 C 71.425 518.444 69.787 514.01 67.183 512.624 C 65.805 516.648 70.394 519.161 69.098 522.472 L 69.603 522.27 L 69.933 521.788 Z M 67.878 519.587 C 67.004 520.693 68.403 522.669 67.878 519.587 Z M 96.945 520.989 C 92.762 520.687 95.323 521.668 96.945 520.989 Z M 88.123 519.872 C 87.049 514.054 86.094 523.309 88.123 519.872 Z M 91.39 519.461 C 90.017 516.609 90.283 522.209 91.39 519.461 Z M 73.248 516.697 C 70.563 512.619 74.067 523.08 73.606 517.348 L 73.248 516.697 Z M 78.765 518.81 C 75.592 514.836 76.763 522.034 78.765 518.81 Z M 90.576 517.546 C 88.97 515.69 90.337 519.445 90.576 517.546 Z M 66.434 513.719 C 66.776 511.76 65.658 507.156 65.002 510.966 C 61.557 510.211 65.528 503.746 61.27 504.305 C 62.685 503.286 63.716 499.466 61.205 501.431 C 59.929 504.124 61.769 493.817 62.192 498.765 C 65.805 498.048 62.891 492.76 60.629 496.854 C 57.402 499.843 60.38 504.13 60.451 508.087 C 61.926 511.147 64.807 512.138 65.903 515.302 C 66.038 517.946 66.999 514.305 66.434 513.719 Z M 76.758 514.579 C 77.279 513.446 76.568 510.999 75.196 510.523 C 75.016 512.132 77.604 519.346 76.758 514.579 Z M 80.165 514.092 C 77.99 514.19 80.409 517.31 80.165 514.092 Z M 91.14 512.274 C 88.975 506.971 91.058 519.856 91.325 513.9 L 91.26 513.085 L 91.14 512.274 Z M 63.721 514.261 C 62.626 511.152 61.129 515.844 63.684 515.022 L 63.721 514.261 Z M 73.139 512.893 C 70.812 510.139 73.671 515.389 73.139 512.893 Z M 80.865 511.672 C 79.752 512.022 81.646 514.283 80.865 511.672 Z M 77.886 510.818 C 75.841 510.66 79.438 513.993 77.886 510.818 Z M 86.235 512.072 C 84.63 510.216 85.997 513.971 86.235 512.072 Z M 82.981 511.524 C 81.375 509.669 82.742 513.424 82.981 511.524 Z M 71.306 509.746 C 70.416 506.773 70.568 513.594 71.306 509.746 Z M 69.136 508.377 C 68.8 504.414 67.14 507.775 68.604 509.335 C 69.033 509.302 69.13 508.678 69.136 508.377 Z M 80.588 505.656 C 78.939 503.866 81.028 512.302 81.001 507.463 C 80.968 506.844 80.881 506.21 80.588 505.656 Z M 76.731 506.461 C 74.94 505.038 75.949 510.446 76.731 506.461 Z M 84.039 505.914 C 83.822 503.413 82.037 500.927 82.959 505.115 C 82.845 506.116 84.771 510.058 84.039 505.914 Z M 66.76 505.651 C 64.801 505.427 67.622 508.459 66.76 505.651 Z M 71.208 504.66 C 68.441 500.566 72.222 509.428 71.208 504.66 Z M 73.623 504.874 C 71.827 504.54 74.686 507.632 73.623 504.874 Z M 65.892 502.7 C 65.203 500.018 63.472 505.837 65.832 503.161 L 65.892 502.7 Z M 75.44 502.367 C 74.328 502.717 76.221 504.978 75.44 502.367 Z M 74.029 501.945 C 72.657 499.093 72.923 504.693 74.029 501.945 Z M 68.062 500.851 C 66.689 497.998 66.955 503.598 68.062 500.851 Z M 64.807 499.997 C 63.396 498.163 63.786 502.734 64.807 499.997 Z M 84.076 498.404 C 83.469 496.707 81.342 491.6 82.161 496.22 C 82.617 497.845 86.008 503.878 84.337 498.951 L 84.076 498.404 Z M 79.454 499.482 C 77.995 497.276 78.174 501.611 79.454 499.482 Z M 66.977 498.081 C 65.474 496.909 65.691 500.166 66.977 498.081 Z M 70.774 498.42 C 69.499 495.388 69.293 500.566 70.774 498.42 Z M 85.422 497.84 C 83.952 495.82 84.901 499.586 85.422 497.84 Z M 77.067 496.345 C 75.955 496.696 77.848 498.957 77.067 496.345 Z M 80.095 496.625 C 77.832 495.76 81.505 499.083 80.095 496.625 Z M 80.588 493.839 C 78.885 493.203 81.597 498.415 80.952 494.561 L 80.588 493.839 Z M 78.814 494.282 C 76.292 490.029 77.93 497.742 79.086 494.961 L 78.814 494.282 Z M 86.485 493.209 C 87.993 489.427 83.371 493.072 85.845 493.844 L 86.485 493.209 Z M 75.114 492.64 C 73.742 489.788 74.007 495.388 75.114 492.64 Z M 82.297 492.087 C 80.284 486.592 82.075 496.444 82.297 492.087 Z M 83.914 491.173 C 80.919 490.243 85.075 494.474 83.914 491.173 Z M 56.995 490.872 C 55.883 491.222 57.776 493.483 56.995 490.872 Z M 85.964 489.613 C 83.599 488.31 84.842 492.289 85.964 489.613 Z M 74.572 488.261 C 73.324 485.529 74.165 490.789 74.572 488.261 Z M 79.064 487.861 C 78.169 486.214 76.877 482.546 77.545 486.498 C 77.404 487.259 80.051 490.62 79.064 487.861 Z M 81.196 487.434 C 79.232 481.435 80.8 492.454 81.196 487.434 Z M 62.23 487.757 C 60.949 484.955 60.402 490.352 62.23 487.757 Z M 83.99 487.713 C 82.612 485.19 83.887 490.352 83.99 487.713 Z M 76.742 486.892 C 75.272 484.872 76.221 488.638 76.742 486.892 Z M 85.78 485.661 C 84.89 486.109 86.262 488.469 85.78 485.661 Z M 60.081 485.797 C 59.902 482.278 58.823 489.164 60.081 485.797 Z M 66.434 485.283 C 64.807 482.114 64.562 487.467 66.434 485.283 Z M 81.776 484.681 C 80.463 481.238 82.08 488.211 81.776 484.681 Z M 84.88 485.217 C 83.572 483.931 83.534 487.265 84.88 485.217 Z M 62.534 481.555 C 63.32 479.858 64.031 476.197 62.355 480.007 C 60.359 481.205 60.543 485.114 62.534 481.555 Z M 77.274 480.855 C 74.697 477.68 78.407 485.551 77.501 481.353 L 77.274 480.855 Z M 81.624 480.324 C 80.903 477.061 79.227 478.441 80.881 480.882 C 81.972 484.123 82.476 482.42 81.624 480.324 Z M 57.211 480.805 C 55.709 479.858 56.343 483.307 57.211 480.805 Z M 72.944 481.112 C 71.821 479.092 72.445 483.619 72.944 481.112 Z M 79.698 480.187 C 77.149 473.831 79.546 484.84 79.698 480.187 Z M 76.937 478.408 C 74.567 475.698 76.785 481.117 76.937 478.408 Z M 56.821 473.618 C 56.659 470.526 50.652 478.726 54.146 477.79 C 55.128 476.465 56.121 475.118 56.821 473.618 Z M 70.774 477.86 C 69.401 475.009 69.668 480.609 70.774 477.86 Z M 76.525 475.545 C 74.567 475.321 77.388 478.353 76.525 475.545 Z M 61.009 473.996 C 59.507 472.824 59.723 476.082 61.009 473.996 Z M 64.264 474.346 C 65.571 471.325 63.472 472.687 63.315 474.729 C 63.635 474.987 64.264 474.828 64.264 474.346 Z M 78.353 472.321 C 78.483 470.663 75.836 467.816 77.111 471.297 C 77.127 473.044 79.286 475.736 78.353 472.321 Z M 63.711 468.281 C 65.105 465.725 63.147 464.767 62.561 467.92 C 61.243 469.962 61.514 473.52 62.81 469.535 L 63.169 468.883 L 63.711 468.281 Z M 60.792 469.524 C 59.68 469.874 61.573 472.135 60.792 469.524 Z M 74.029 470.164 C 72.527 468.993 72.744 472.25 74.029 470.164 Z M 93.559 470.471 C 92.089 468.451 93.039 472.217 93.559 470.471 Z M 95.187 469.376 C 93.727 467.17 93.907 471.505 95.187 469.376 Z M 97.059 467.137 C 94.541 465.917 97.015 469.956 97.059 467.137 Z M 55.351 466.217 C 52.492 465.473 53.897 469.595 55.351 466.217 Z M 81.277 466.371 C 79.064 464.291 81.342 468.993 81.277 466.371 Z M 93.749 465.802 C 92.068 463.125 93.695 469.223 93.749 465.802 Z M 98.985 465.884 C 100.232 465.468 102.522 461.746 99.668 463.53 C 98.301 463.754 97.08 468.424 98.985 465.884 Z M 60.993 463.661 C 59.241 463.881 59.11 467.783 60.77 464.384 L 60.993 463.661 Z M 57.211 463.771 C 55.698 463.092 54.987 467.093 56.973 464.356 L 57.211 463.771 Z M 94.693 460.739 C 94.503 458.981 95.491 451.083 95.491 456.622 C 95.398 459.682 95.225 462.731 95.095 465.785 C 104.334 455.938 113.068 445.231 118.667 432.806 C 120.256 430.895 119.833 426.768 117.706 430.605 C 115.357 438.827 110.909 446.512 104.887 452.528 C 105.136 449.752 109.525 446.534 111.066 443.315 C 113.507 439.407 116.111 435.148 116.605 430.561 C 114.445 432.291 114.402 437.332 112.672 438.717 C 112.52 436.353 115.607 431.634 113.974 430.769 C 112.411 434.875 110.101 438.515 107.941 442.308 C 105.999 444.24 109.048 438.055 109.417 436.878 C 110.339 432.882 107.296 439.905 106.612 440.868 C 104.925 444.218 101.431 446.069 99.055 448.461 C 99.869 446.49 102.381 443.693 98.55 445.91 C 94.406 447.875 94.899 453.458 93.727 457.208 C 93.782 458.434 93.603 464.663 94.509 464.97 C 94.633 463.563 94.666 462.151 94.693 460.739 Z M 95.225 451.997 C 96.093 445.992 97.042 453.721 95.225 451.997 Z M 73.487 464.483 C 72.212 461.45 72.006 466.628 73.487 464.483 Z M 55.828 463.218 C 56.74 460.388 57.043 458.007 54.841 461.417 C 53.615 462.233 54.754 465.2 55.828 463.218 Z M 77.924 462.687 C 75.662 461.822 79.335 465.145 77.924 462.687 Z M 30.629 462.501 C 29.126 461.33 29.344 464.586 30.629 462.501 Z M 76.265 461.888 C 74.252 459.835 77.366 465.479 76.265 461.888 Z M 80.55 461.45 C 76.915 458.571 82.319 464.734 80.55 461.45 Z M 60.016 460.81 C 62.707 457.864 58.406 459.753 58.633 461.712 C 59.175 461.549 59.599 461.166 60.016 460.81 Z M 56.648 457.744 C 59.121 459.803 55.926 453.781 55.096 457.536 C 53.908 460.158 52.627 461.067 56.648 457.744 Z M 52.562 458.915 C 52.693 457.137 55.85 455.981 53.626 455.785 C 54.651 452.769 47.918 461.029 52.562 458.915 Z M 30.9 457.881 C 30.732 455.943 28.503 459.835 30.9 457.881 Z M 81.624 457.881 C 80.165 455.675 80.344 460.01 81.624 457.881 Z M 51.065 456.42 C 48.25 456.042 49.557 459.37 51.065 456.42 Z M 61.552 455.9 C 60.228 453.83 60.396 459.539 61.552 455.9 Z M 58.302 454.876 C 54.852 452.878 59.099 457.596 58.302 454.876 Z M 33.884 454.033 C 31.519 452.73 32.761 456.71 33.884 454.033 Z M 62.886 453.464 C 61.384 451.822 62.675 456.157 62.886 453.464 Z M 54.483 451.712 C 52.557 451.482 50.691 455.264 53.62 452.736 L 54.049 452.352 L 54.483 451.712 Z M 56.354 453.715 C 59.642 450.245 52.297 454.619 56.354 453.715 Z M 65.674 450.913 C 64.562 451.263 66.456 453.524 65.674 450.913 Z M 63.18 451.345 C 61.904 448.313 61.698 453.491 63.18 451.345 Z M 26.935 450.94 C 24.52 450.535 27.238 451.937 26.935 450.94 Z M 45.423 449.632 C 43.02 446.66 45.483 453.54 45.423 449.632 Z M 57.754 450.185 C 56.447 448.899 56.409 452.232 57.754 450.185 Z M 47.447 449.123 C 45.987 446.917 46.167 451.252 47.447 449.123 Z M 43.519 447.24 C 40.215 443.167 41.213 452.259 43.519 447.24 Z M 51.515 448.576 C 50.691 446.66 49.47 450.398 51.515 448.576 Z M 64.59 447.628 C 63.478 447.979 65.371 450.24 64.59 447.628 Z M 45.635 445.143 C 44.761 446.249 46.161 448.225 45.635 445.143 Z M 58.536 446.643 C 60.727 444.027 54.477 448.608 58.047 446.988 L 58.536 446.643 Z M 22.491 446.134 C 19.399 443.31 19.899 446.572 22.491 446.134 Z M 55.042 445.806 C 53.735 444.519 53.697 447.853 55.042 445.806 Z M 52.074 444.848 C 50.1 444.996 50.652 446.884 52.074 444.848 Z M 76.606 443.879 C 74.029 443.085 76.281 447.306 76.606 443.879 Z M 50.691 441.766 C 50.441 440.748 49.308 442.089 49.964 439.697 C 50.544 433.019 42.396 438.652 39.043 436.489 C 36.331 437.475 30.667 431.973 33.071 437.628 C 33.45 439.237 34.546 443.031 35.707 442.626 C 34.779 440.557 35.799 438.515 36.792 441.684 C 37.676 444.607 43.611 444.41 44.994 442.817 C 45.64 439.823 45.824 445.302 46.416 443.999 C 47.018 442.773 47.853 439.877 47.869 442.784 C 47.908 445.094 49.508 441.909 49.21 444.738 C 50.056 444.021 50.625 442.883 50.691 441.766 Z M 59.913 442.899 C 57.624 442.494 58.866 446.901 59.913 442.899 Z M 65.674 443.25 C 64.562 443.6 66.456 445.86 65.674 443.25 Z M 52.802 441.236 C 54.168 438.843 51.45 436.856 51.939 440.392 C 51.461 442.275 51.071 445.992 52.535 442.111 L 52.802 441.236 Z M 100.162 443.294 C 102.961 439.806 98.92 440.108 97.802 442.965 C 96.223 445.001 99.565 444.06 100.162 443.294 Z M 88.406 443.101 C 88.237 441.164 86.008 445.056 88.406 443.101 Z M 96.983 441.022 C 98.735 439.429 98.626 438.799 96.472 438.936 C 94.021 436.353 93.977 446.156 96.983 441.022 Z M 89.198 438.553 C 87.163 438.805 85.503 444.18 88.4 440.097 L 88.818 439.467 L 89.198 438.553 Z M 93.212 438.717 C 93.945 437.655 95.09 436.643 96.304 435.597 C 94.324 432.816 87.168 439.237 92.838 436.714 C 93.022 438.679 88.064 439.762 89.653 441.564 C 90.841 440.638 91.623 439.029 93.212 438.717 Z M 55.481 440.398 C 55.058 438.493 52.904 442.674 55.107 440.978 L 55.481 440.398 Z M 51.06 438.028 C 50.186 439.133 51.586 441.109 51.06 438.028 Z M 105.495 439.544 C 105.087 437.015 104.247 442.275 105.495 439.544 Z M 102.109 438.038 C 103.161 435.63 100.525 433.698 100.992 437.48 C 100.835 438.509 101.333 439.281 102.109 438.038 Z M 97.9 437.321 C 96.397 436.15 96.613 439.407 97.9 437.321 Z M 55.042 437.048 C 53.735 435.761 53.697 439.095 55.042 437.048 Z M 99.858 434.579 C 97.167 431.651 100.162 441.065 100.021 435.543 L 99.858 434.579 Z M 108.196 435.543 C 107.182 433.938 107.046 439.216 108.196 435.543 Z M 51.488 435.044 C 51.537 433.123 47.523 434.765 51.049 435.942 L 51.488 435.044 Z M 56.94 435.438 C 55.334 433.583 56.702 437.338 56.94 435.438 Z M 72.201 433.506 C 69.082 430.485 73.286 437.71 72.201 433.506 Z M 45.954 433.933 C 46.324 431.985 50.165 437.092 48.244 433.276 C 52.454 431.629 43.286 430.326 43.106 429.226 C 45.835 429.423 52.704 432.072 49.557 426.823 C 50.246 423.539 46.411 420.402 44.029 423.61 C 41.409 422.69 45.776 417.337 42.472 421.338 C 41.083 424.19 41.267 421.896 41.897 420.402 C 40.617 421.743 38.864 423.954 41.761 424.244 C 43.763 424.841 46.487 426.894 42.689 426.532 C 38.132 428.158 41.474 435.992 45.635 434.557 L 45.906 434.294 L 45.954 433.933 Z M 42.841 433.26 C 42.895 431.246 46.036 434.519 42.841 433.26 Z M 45.819 432.154 C 47.279 429.948 47.1 434.283 45.819 432.154 Z M 47.268 426.861 C 46.047 423.249 49.97 428.279 47.268 426.861 Z M 44.734 424.491 C 46.73 422.29 46.817 426.631 44.734 424.491 Z M 47.718 423.944 C 47.886 422.006 50.116 425.897 47.718 423.944 Z M 28.806 432.937 C 29.18 430.265 22.448 433.155 23.012 433.019 C 24.417 433.254 28.963 435.936 28.806 432.937 Z M 51.217 432.105 C 48.781 429.187 52.069 435.701 51.217 432.105 Z M 53.957 432.734 C 51.928 429.291 52.091 434.765 53.957 432.734 Z M 112.2 432.428 C 111.652 429.176 111.077 435.214 112.2 432.428 Z M 26.463 431.065 C 25.481 429.609 21.71 430.824 19.779 430.96 C 20.957 432.855 24.689 431.481 26.463 431.065 Z M 28.459 429.965 C 25.687 428.01 26.664 431.131 28.459 429.965 Z M 51.982 429.691 C 51.434 426.439 50.859 432.477 51.982 429.691 Z M 68.838 428.41 C 66.917 424.162 67.785 430.255 69.483 430.255 C 69.423 429.592 69.109 429.001 68.838 428.41 Z M 59.165 427.923 C 58.052 428.273 59.946 430.534 59.165 427.923 Z M 22.491 427.846 C 20.864 426.866 15.037 427.397 19.48 428.646 C 22.014 428.941 24.564 428.755 27.103 428.765 C 25.568 428.459 24.027 428.153 22.491 427.846 Z M 16.524 426.976 C 15.206 425.531 11.55 424.217 10.269 424.393 C 11.533 425.383 15.2 429.297 16.524 426.976 Z M 21.011 425.093 C 19.134 424.272 16.313 419.964 17.137 424.611 C 17.593 426.473 26.718 428.421 21.563 425.46 L 21.011 425.093 Z M 59.978 424.71 C 64.698 420.933 57.081 415.629 54.347 420.627 C 51.363 422.98 56.387 420.112 57.022 422.066 C 58.161 425.919 53.289 426.653 53.051 422.739 C 51.656 427.622 57.781 427.047 59.978 424.71 Z M 35.908 421.612 C 39.401 417.752 31.259 417.572 34.264 421.371 C 33.699 424.945 34.464 423.795 35.908 421.612 Z M 45.347 421.393 C 45.954 419.274 41.843 424.201 45.347 421.393 Z M 71.3 419.039 C 73.27 416.647 67.47 420.861 71.3 419.039 Z M 71.588 416.28 C 71.409 414.501 68.371 417.539 71.11 416.669 L 71.588 416.28 Z M 52.432 414.813 C 50.018 414.408 52.736 415.809 52.432 414.813 Z M 73.357 413.932 C 73.742 412.525 72.852 411.324 75.207 410.735 C 75.223 407.803 78.028 406.485 79.433 403.521 C 80.382 400.104 81.983 397.201 83.181 393.694 C 79.357 393.653 86.409 389.673 84.646 386.829 C 84.923 382.847 87.049 377.989 84.543 374.499 C 80.865 375.395 88.074 365.001 84.158 368.795 C 82.905 371.355 83.338 368.057 83.17 366.839 C 82.943 367.874 81.169 371.657 80.724 367.966 C 81.31 371.27 77.664 369.731 79.178 373.256 C 74.567 374.516 78.028 378.893 75.754 381.771 C 75.408 385.007 71.762 389.813 72.38 391.86 C 76.85 388.609 69.271 395.485 72.244 395.661 C 73.395 391.055 73.926 397.64 71.632 398.474 C 70.585 400.399 71.251 403.536 72.977 400.984 C 73.031 405.333 68.968 406.015 69.586 410.558 C 71.664 408.538 72.717 403.379 75.966 401.501 C 77.724 404.193 71.859 406.457 71.469 409.429 C 70.612 410.825 69.109 416.28 71.018 412.147 C 73.406 407.769 70.905 414.205 71.073 415.01 C 71.892 414.797 72.668 414.425 73.357 413.932 Z M 74.648 391.424 C 76.899 387.363 75.103 394.177 74.371 392.091 L 74.648 391.424 Z M 76.742 385.933 C 77.241 383.425 77.864 387.952 76.742 385.933 Z M 80.539 376.321 C 81.999 374.115 81.82 378.452 80.539 376.321 Z M 45.526 409.674 C 44.023 408.03 45.315 412.366 45.526 409.674 Z M 48.743 408.845 C 49.681 405.267 45.857 411.778 48.743 408.845 Z M 63.282 406.413 C 60.9 403.638 64.254 410.648 63.282 406.413 Z M 69.136 404.616 C 67.253 404.477 68.501 407.978 69.136 404.616 Z M 53.414 402.529 C 51.58 400.584 50.631 406.101 53.192 403.056 L 53.414 402.529 Z M 47.436 399.689 C 46.313 399.197 45.07 397.46 45.824 400.421 C 46.438 402.165 47.268 400.684 47.436 399.689 Z M 54.049 398.216 C 54.51 393.178 52.297 399.657 53.637 400.233 C 53.903 399.595 53.968 398.896 54.049 398.216 Z M 50.799 398.098 C 48.532 397.235 52.215 400.55 50.799 398.098 Z M 69.917 397.318 C 69.641 395.5 67.753 400.084 69.917 397.318 Z M 50.474 393.423 C 48.765 393.894 50.93 399.049 50.631 394.664 L 50.631 394.101 L 50.474 393.423 Z M 46.714 393.587 C 44.186 390.588 47.17 397.001 46.714 393.587 Z M 70.774 390.521 C 69.467 389.235 69.429 392.569 70.774 390.521 Z M 47.544 389.34 C 45.277 388.477 48.96 391.792 47.544 389.34 Z M 50.685 385.7 C 49.042 385.829 48.694 391.689 50.214 387.148 L 50.463 386.487 L 50.685 385.7 Z M 72.727 386.322 C 71.615 386.67 73.509 388.932 72.727 386.322 Z M 48.347 380.563 C 47.458 381.011 48.83 383.369 48.347 380.563 Z M 74.93 380.563 C 74.04 381.011 75.413 383.369 74.93 380.563 Z M 53.957 378.654 C 53.403 374.034 51.304 383.348 53.908 379.49 L 53.957 378.654 Z M 56.127 378.237 C 57.684 375.423 57.798 371.217 56.127 368.658 C 55.65 372.279 57.277 375.074 55.242 378.652 C 54.955 381.158 56.273 379.334 56.127 378.237 Z M 51.233 377.827 C 50.382 375.133 50.073 381.643 51.233 377.827 Z M 53.414 375.742 C 52.004 373.909 52.394 378.48 53.414 375.742 Z M 55.367 374.28 C 54.255 374.628 56.148 376.889 55.367 374.28 Z M 76.742 373.552 C 75.435 372.266 75.397 375.6 76.742 373.552 Z M 87.592 373.584 C 86.132 371.378 86.311 375.715 87.592 373.584 Z M 30.759 542.879 C 25.117 541.258 27.716 533.94 31.253 531.312 C 33.944 527.224 26.05 530.114 24.032 529.632 C 6.292 530.645 -11.405 532.248 -29.068 534.165 C -30.276 534.487 -33.4 534.257 -31.778 533.108 C -35.984 532.353 -41.871 534.608 -44.435 529.982 C -47.354 526.726 -43.497 520.08 -39.28 522.445 C -35.752 523.868 -39.077 529.407 -41.365 526.714 C -37.907 525.641 -41.974 522.127 -43.03 525.784 C -43.429 532.796 -32.677 528.389 -35.219 522.959 C -36.419 518.164 -39.988 514.426 -41.84 509.877 C -44.828 504.874 -43.312 498.645 -41.264 493.581 C -40.023 489.24 -32.948 486.553 -37.063 481.692 C -37.423 478.49 -41.892 476.612 -38.033 473.525 C -34.21 470.657 -29.049 471.609 -24.572 470.778 C -19.051 470.186 -13.478 469.83 -7.98 469.223 C -5.953 465.922 -3.995 461.39 0.508 461.056 C 4.692 458.637 6.352 453.661 9.635 450.294 C 10.095 448.482 5.859 447.338 7.925 444.569 C 8.718 441.816 13.524 438.389 15.331 441.043 C 11.647 440.409 6.694 444.716 9.895 447.793 C 9.531 443.693 10.296 447.125 11.484 447.24 C 11.615 444.224 16.735 448.532 14.131 450.316 C 11.68 454.088 8.397 457.437 6.857 461.718 C 4.128 463.027 3.672 467.756 4.188 469.458 C 8.598 469.771 13.063 469.639 17.414 470.498 C 19.692 472.606 16.822 476.678 16.057 479.618 C 14.831 481.698 18.9 482.59 19.714 484.221 C 23.696 486.942 26.436 491.413 25.985 496.395 C 25.882 498.601 25.866 503.242 27.971 498.918 C 29.891 497.763 30.954 492.476 28.73 496.647 C 26.794 496.072 32.17 489.821 27.439 490.899 C 28.046 489.35 30.081 487.418 27.418 487.035 C 30.173 484.254 28.291 478.533 32.192 476.875 C 31.172 478.463 29.392 483.662 32.241 480.631 C 31.128 482.218 29.55 487.287 32.083 484.604 C 31.215 486.06 29.555 492.213 31.714 487.708 C 34.584 483.274 30.819 491.277 32.463 491.819 C 33.813 492.41 31.714 494.84 34.394 495.459 C 33.168 495.678 30.835 499.838 33.917 497.232 C 34.248 500.057 30.857 504.217 29.615 507.261 C 30.683 513.019 31.616 501.218 32.935 507.167 C 33.737 511.273 33.374 515.729 35.522 519.461 C 35.522 517.606 33.401 510.906 35.957 515.312 C 36.977 517.327 40.731 523.764 36.488 523.156 C 33.222 518.832 38.045 526.917 35.571 528.105 C 35.105 531.783 30.016 533.404 29.246 537.558 C 28.638 539.715 31.096 542.884 30.315 538.883 C 30.26 536.113 33.076 535.806 31.405 538.795 C 32.105 542.107 34.714 539.441 33.819 537.345 C 35.484 538.362 39.906 538.094 36.645 537.153 C 36.591 532.949 40.839 530.667 42.152 527.103 C 42.846 523.819 42.043 531.756 43.644 528.756 C 44.664 527.272 40.855 522.248 43.492 523.036 C 44.577 524.722 44.826 530.47 47.04 526.966 C 47.897 530.869 45.494 532.9 41.913 532.687 C 42.353 532.818 48.456 532.572 45.922 533.797 C 44.268 533.486 36.928 534.996 42.157 534.81 C 45.233 535.855 35.848 535.538 39.477 538.696 C 39.163 542.589 34.047 543.59 30.759 542.879 Z M -18.556 531.531 C -11.536 531.455 -4.613 530.321 2.386 529.9 C 0.619 529.27 -6.076 529.539 -9.629 529.566 C -11.53 529.894 -18.208 528.833 -12.94 528.154 C -9.876 528.444 -8.081 525.526 -4.917 526.052 C -9.887 525.598 -15.102 526.895 -19.899 525.231 C -23.834 522.258 -28.674 524.941 -32.76 526.118 C -33.8 527.158 -38.313 531.214 -36.365 531.209 C -33.475 531.427 -27.5 529.834 -26.453 531.104 C -28.881 530.71 -31.891 532.555 -27.716 531.964 C -24.667 531.75 -21.611 531.635 -18.556 531.531 Z M 11.983 529.473 C 10.53 528.389 4.047 530.333 9.108 530.065 C 10.063 529.96 11.142 529.993 11.983 529.473 Z M 16.627 529.216 C 14.213 528.811 16.931 530.212 16.627 529.216 Z M 23.712 528.931 C 27.889 527.979 19.443 528.389 18.168 529.106 C 16.199 530.158 23.413 528.69 23.712 528.931 Z M 8.489 528.121 C 6.076 527.716 8.794 529.117 8.489 528.121 Z M 19.508 527.946 C 19.508 527.333 12.336 527.88 10.768 528.406 C 13.676 528.587 16.632 528.395 19.508 527.946 Z M 28.052 528.132 C 25.269 527.645 27.608 529.03 28.052 528.132 Z M 31.714 528.023 C 29.636 526.999 27.889 529.26 31.318 528.357 L 31.606 528.203 L 31.714 528.023 Z M 33.342 527.639 C 31.839 526.468 32.056 529.725 33.342 527.639 Z M 34.193 525.641 C 34.139 523.693 32.241 520.939 30.456 522.045 C 28.492 517.316 28.546 524.76 27.168 526.08 C 29.126 526.512 32.869 527.842 34.193 525.641 Z M 30.358 525.718 C 28.562 524.596 35.576 525.565 31.324 525.948 L 30.358 525.718 Z M 20.321 526.003 C 19.199 520.66 12.699 522.801 8.848 521.766 C 3.231 520.036 -2.137 522.138 -7.695 522.91 C -9.909 523.983 -14.626 521.914 -15.362 524.421 C -9.751 524.453 -4.136 523.753 1.428 523.129 C 2.84 524.809 -3.791 523.54 -0.046 525.248 C 0.316 526.036 2.834 523.507 3.911 525.504 C 8.934 525.794 13.947 524.531 18.965 524.902 C 19.237 526.249 14.999 526.178 19.079 526.227 L 19.724 526.189 L 20.321 526.003 Z M 25.98 523.802 C 28.589 520.939 24.716 519.056 23.783 522.27 C 20.219 520.058 29.18 515.991 25.361 515.553 C 23.74 519.209 24.797 513.824 24.808 512.521 C 25.579 511.13 23.87 510.671 24.754 509.132 C 20.37 509.943 20.311 517.239 20.446 521.148 C 20.63 523.66 23.951 525.877 25.98 523.802 Z M -28.829 523.085 C -24.755 523.173 -24.086 520.299 -24.52 516.856 C -23.809 513.15 -16.892 514.278 -19.73 517.497 C -23.346 513.725 -22.666 524.831 -18.972 520.431 C -18.866 515.236 -13.562 511.639 -17.202 506.472 C -18.697 503.391 -16.915 497.742 -19.723 496.132 C -24.715 495.36 -29.508 493.04 -33.424 489.843 C -37.774 490.582 -38.386 496.937 -39.683 500.626 C -39.886 504.907 -39.136 510.02 -36.345 513.276 C -33.439 515.854 -34.384 519.423 -32.898 522.877 C -32.213 524.662 -30.074 523.309 -28.829 523.085 Z M -18.635 522.647 C -21.048 522.242 -18.328 523.643 -18.635 522.647 Z M -4.585 520.392 C -6.429 519.631 -9.634 522.352 -5.918 521.213 C -5.768 521.027 -4.272 520.868 -4.585 520.392 Z M -9.272 520.879 C -11.614 518.953 -1.515 518.131 -5.6 517.847 C -8.383 520.316 -10.121 515.597 -6.616 517.173 C -5.766 515.356 -10.028 515.876 -5.892 514.973 C -1.98 512.707 -12.031 515.175 -13.956 514.694 C -16.816 513.927 -12.896 518.47 -15.837 516.15 C -18.494 515.099 -17.525 522.959 -14.244 519.483 C -11.475 517.748 -10.268 520.704 -13.385 521.202 C -12.058 521.339 -10.474 521.541 -9.272 520.879 Z M -11.684 517.272 C -9.541 514.136 -9.379 520.294 -11.684 517.272 Z M -13.6 516.971 C -14.128 514.3 -10.981 518.279 -13.6 516.971 Z M 18.165 518.788 C 18.403 512.789 21.523 507.479 22.939 501.786 C 23.574 495.743 21.572 488.513 15.973 485.469 C 11.519 485.748 9.382 491.945 4.803 493.034 C 0.084 494.846 -4.939 495.831 -9.99 495.837 C -11.402 498.908 -12.864 502.071 -12.92 505.52 C -14.863 504.425 -13.117 499.313 -11.666 497.2 C -9.864 495.125 -16.428 496.121 -15.278 498.661 C -15.158 502.005 -15.665 507.217 -13.032 509.225 C -11.941 507.112 -9.332 504.989 -8.037 504.096 C -7.148 509.943 -8.043 497.259 -6.669 502.772 C -7.308 504.847 -5.036 509.138 -4.23 504.907 C -3.617 502.734 -6.881 498.437 -5.311 497.676 C -1.978 501.19 -3.903 506.1 -3.84 509.664 C -2.4 515.187 3.389 511.859 6.691 510.183 C 9.436 508.946 9.907 502.46 13.662 507.096 C 16.195 510.578 12.23 514.464 8.904 511.754 C 6.332 512.68 1.522 513.556 0.535 515.767 C 0.79 521.563 7.619 519.714 11.53 520.748 C 13.656 520.534 19.174 523.063 18.165 518.788 Z M 37.119 519.658 C 34.466 512.98 37.944 525.094 37.119 519.658 Z M 27.918 517.513 C 26.508 515.679 26.899 520.25 27.918 517.513 Z M -2.461 516.692 C -3.966 515.52 -3.747 518.778 -2.461 516.692 Z M 32.644 513.802 C 33.143 512.083 31.537 504.622 32.02 510.293 C 32.427 512.072 30.609 517.502 32.524 516.752 C 32.595 515.772 32.611 514.787 32.644 513.802 Z M -1.106 515.904 C -2.711 514.048 -1.342 517.803 -1.106 515.904 Z M -3.004 515.356 C -4.475 513.336 -3.522 517.102 -3.004 515.356 Z M -8.645 511.7 C -6.163 510.933 -5.327 509.072 -8.432 510.654 C -10.103 512.159 -15.205 513.2 -10.71 510.884 C -15.301 509.773 -13.685 515.488 -9.876 512.247 L -9.282 511.99 L -8.645 511.7 Z M -6.817 512.641 C -4.468 510.49 -12.158 513.84 -7.7 512.992 L -6.817 512.641 Z M 12.636 510.222 C 12.734 508.038 9.658 506.686 11.557 509.264 C 9.891 511.049 11.822 512.603 12.636 510.222 Z M -40.699 507.184 C -42.595 502.055 -41.192 511.147 -40.535 508.366 L -40.585 507.825 L -40.699 507.184 Z M 27.7 507.841 C 26.588 508.191 28.481 510.451 27.7 507.841 Z M -7.075 507.966 C -8.762 505.646 -13.194 510.003 -8.402 508.558 C -7.998 508.388 -7.3 508.465 -7.075 507.966 Z M 25.204 505.985 C 23.702 505.038 24.336 508.486 25.204 505.985 Z M -41.253 503.861 C -42.858 502.005 -41.489 505.761 -41.253 503.861 Z M 29.544 503.554 C 28.041 502.383 28.258 505.64 29.544 503.554 Z M -40.981 501.091 C -42.393 499.258 -41.999 503.828 -40.981 501.091 Z M 25.204 499.997 C 23.87 496.494 23.951 504.178 25.204 499.997 Z M -40.71 498.935 C -42.754 497.112 -41.537 500.851 -40.71 498.935 Z M 24.987 496.345 C 23.029 496.121 25.85 499.154 24.987 496.345 Z M 24.911 494.518 C 23.408 492.875 24.7 497.211 24.911 494.518 Z M -7.889 493.608 C -4.784 493.138 -11.685 492.629 -7.906 492.267 C -5.782 492.317 -0.445 490.116 -0.32 491.447 C -1.055 491.95 -7.273 492.728 -4.969 492.81 C -1.38 492.996 2.443 492.147 5.468 490.33 C 3.813 490.888 -1.466 491.606 2.836 490.051 C 5.197 490.511 10.464 486.515 5.213 488.102 C -5.236 491.08 -16.239 491.381 -27.012 490.806 C -32.725 489.963 -24.819 493.904 -22.709 493.581 C -17.822 494.282 -12.759 494.583 -7.889 493.608 Z M 24.662 492.913 C 23.202 490.708 23.381 495.043 24.662 492.913 Z M 24.119 490.965 C 22.616 489.794 22.834 493.05 24.119 490.965 Z M -14.297 489.257 C -16.71 488.852 -13.991 490.253 -14.297 489.257 Z M -3.989 488.71 C -6.402 488.304 -3.683 489.706 -3.989 488.71 Z M -1.108 486.914 C 1.815 486.614 7.627 485.797 7.453 482.814 C 0.916 483.86 -5.683 485.289 -12.346 484.801 C -13.445 483.602 -7.204 483.652 -5.534 483.674 C -0.836 483.4 3.933 482.776 8.44 481.473 C 9.325 478.982 2.996 481.867 1.373 481.402 C -0.973 480.942 -6.34 483.231 -7.107 481.604 C -3.174 478.529 -12.411 481.036 -14.298 480.4 C -19.178 480.209 -23.995 481.326 -28.859 480.482 C -31.664 480.619 -38.386 477.521 -34.914 482.962 C -33.608 487.828 -28.237 487.681 -24.199 487.877 C -16.501 488.321 -8.749 487.916 -1.108 486.914 Z M 2.961 484.703 C 4.784 483.92 7.529 484.353 4.236 485.031 C 3.25 485.212 0.347 485.299 2.821 484.747 L 2.961 484.703 Z M -13.043 482.514 C -9.508 480.351 -10.337 484.73 -13.043 482.514 Z M 8.929 484.397 C 7.426 483.225 7.643 486.482 8.929 484.397 Z M 10.014 482.787 C 11.093 479.902 6.065 485.327 10.014 482.787 Z M 12.184 481.933 C 10.877 480.647 10.839 483.98 12.184 481.933 Z M 11.099 480.22 C 9.422 478.972 9.276 482.951 11.099 480.22 Z M 13.941 480.094 C 16.529 477.778 9.498 481.687 13.513 480.055 L 13.941 480.094 Z M 1.985 479.727 C 4.469 479.059 11.571 477.746 11.24 476.656 C 6.716 478.068 1.917 478.682 -2.529 480.242 C -1.019 480.324 0.5 479.995 1.985 479.727 Z M -3.714 478.704 C 3.135 478.085 10.014 476.624 16.269 473.728 C 13.361 472.753 8.875 475.693 5.256 475.934 C -0.113 477.176 -5.606 477.675 -11.061 478.315 C -13.84 480.734 -6.895 478.791 -5.417 478.879 C -4.849 478.819 -4.282 478.758 -3.714 478.704 Z M -23.892 478.402 C -25.635 477.669 -34.141 478.052 -27.923 478.61 C -26.611 478.594 -25.119 478.753 -23.892 478.402 Z M -15.348 478.287 C -17.225 477.921 -21.223 478.561 -17.111 478.507 C -17.093 478.495 -13.731 478.517 -15.348 478.287 Z M -7.594 476.454 C -11.308 475.561 -15.698 476.509 -19.661 476.58 C -24.901 477.067 -15.959 477.056 -14.245 477.039 C -12.043 476.914 -9.705 477.182 -7.594 476.454 Z M -24.164 475.972 C -18.455 474.68 -33.973 476.415 -26.906 476.328 C -25.988 476.246 -25.072 476.131 -24.164 475.972 Z M 1.876 475.561 C 6.531 474.237 -4.6 473.837 -5.808 476.268 C -3.242 476.328 -0.666 475.879 1.876 475.561 Z M -35.014 474.85 C -34.147 473.066 -39.52 475.573 -35.801 475.239 L -35.014 474.85 Z M -24.435 474.516 C -19.183 473.678 -13.861 473.575 -8.577 473.148 C -6.579 469.042 -14.393 471.664 -16.859 471.325 C -19.329 471.741 -24.328 471.319 -25.195 472.764 C -23.211 472.951 -16.333 472.321 -21.786 473.46 C -24.62 474.199 -30.808 474.165 -31.796 475.365 C -29.33 475.233 -26.885 474.817 -24.435 474.516 Z M -13.462 474.997 C -15.513 474.658 -19.713 475.271 -15.213 475.217 C -15.168 475.217 -11.634 475.217 -13.462 474.997 Z M -27.961 473.208 C -24.735 472.332 -30.714 472.907 -31.688 473.4 C -34.67 473.958 -27.513 473.47 -27.961 473.208 Z M 12.607 472.841 C 15.157 472.031 14.289 471.697 12.097 471.549 C 8.484 471.368 3.23 469.666 0.791 472.956 C 4.188 474.631 8.972 473.766 12.607 472.841 Z M 32.257 534.241 C 34.221 531.718 33.694 535.992 31.871 534.904 L 32.257 534.241 Z M -2.735 532.965 C 6.157 531.323 15.293 531.493 24.276 530.492 C 26.104 529.703 29.815 531.055 25.926 531.252 C 16.367 531.739 6.841 532.987 -2.723 533.261 L -2.871 533.146 L -2.735 532.965 Z M 49.872 531.69 C 49.318 530.015 51.25 526.507 51.863 530.059 C 53.36 526.315 54.765 533.688 54.651 528.855 C 55.986 527.743 55.134 532.008 57.065 529.928 C 57.668 532.987 56.702 533.885 55.199 531.936 C 54.336 534.438 50.848 528.921 51.125 533.228 C 50.36 533.338 50.018 532.243 49.872 531.69 Z M 47.685 530.82 C 47.295 528.663 50.273 524.755 49.107 529.09 C 49.291 530.814 47.132 535.133 47.685 530.82 Z M 58.052 530.546 C 56.913 527.995 59.523 524.278 60.407 522.834 C 60.635 525.85 57.32 528.494 59.208 531.159 C 58.736 531.384 58.193 531 58.052 530.546 Z M 60.179 529.561 C 59.653 526.889 62.794 530.869 60.179 529.561 Z M 37.464 526.939 C 37.991 523.403 39.792 528.165 37.464 526.939 Z M 52.329 526.851 C 53.789 524.646 53.61 528.98 52.329 526.851 Z M 51.868 524.36 C 53.013 521.076 54.222 525.385 51.923 525.017 L 51.868 524.36 Z M 39.624 524.01 C 39.602 522.122 37.063 517.097 38.376 516.78 C 38.87 517.863 41.718 525.248 39.624 524.01 Z M 56.431 522.882 C 57.575 518.657 58.199 525.012 56.316 523.764 L 56.431 522.882 Z M 122.61 523.085 C 124.628 522.505 131.399 521.257 130.846 523.184 C 128.252 523.583 124.943 523.95 122.61 523.085 Z M 42.835 520.83 C 44.88 519.007 43.66 522.746 42.835 520.83 Z M 40.448 519.96 C 39.819 517.792 39.966 513.911 41.137 518.323 C 43.155 518.646 40.177 522.04 40.448 519.96 Z M 59.246 520.518 C 58.378 518.29 59.094 512.433 59.761 517.967 C 59.702 518.416 60.185 520.89 59.246 520.518 Z M 52.872 517.578 C 54.146 514.546 54.352 519.724 52.872 517.578 Z M 35.582 512.406 C 34.6 510.824 34.259 507.058 35.843 510.791 C 36.765 512.11 37.687 517.163 35.843 513.019 L 35.582 512.406 Z M 96.771 515.252 C 95.805 513.824 95.637 506.33 96.956 511.234 C 97.835 512.078 98.35 515 96.771 515.252 Z M 98.295 511.935 C 97.33 506.888 100.802 513.101 98.882 513.572 C 98.518 513.107 98.398 512.505 98.295 511.935 Z M 37.155 509.537 C 37.275 506.702 40.106 507.244 37.969 509.642 C 37.584 510.441 36.955 510.725 37.155 509.537 Z M 100.433 509.515 C 99.098 507.495 101.176 505.137 101.562 508.552 C 102.217 509.614 101.181 510.337 100.433 509.515 Z M 35.511 507.261 C 38.029 502.635 37.21 508.854 35.511 507.261 Z M 101.176 505.542 C 98.811 500.889 105.066 507.042 101.724 506.286 L 101.176 505.542 Z M 34.427 505.531 C 34.145 503.79 37.665 500.32 35.968 504.135 C 36.065 504.573 34.801 507.189 34.427 505.531 Z M 53.441 505.203 C 53.446 503.91 55.704 498.759 54.787 502.635 C 54.868 503.133 53.658 507.693 53.441 505.203 Z M 32.799 503.653 C 32.739 501.721 36.7 496.564 34.959 501.266 C 34.492 501.842 33.933 504.529 32.799 503.653 Z M 101.431 501.677 C 99.462 498.223 105.163 504.288 101.431 501.677 Z M 101.127 498.338 C 99.353 494.32 106.623 501.152 101.909 499.148 L 101.458 498.781 L 101.127 498.338 Z M 90.06 498.437 C 90.103 495.618 92.577 499.657 90.06 498.437 Z M 100.069 495.513 C 96.706 494.583 103.118 493.964 103.254 496.055 C 102.228 496.406 101.035 495.859 100.069 495.513 Z M 99.115 493.1 C 97.856 489.859 105.294 494.534 99.999 493.302 L 99.115 493.1 Z M 97.525 490.478 C 98.887 488.245 103.417 491.157 99.245 491.107 C 98.768 490.992 97.672 491.162 97.525 490.478 Z M 95.491 489.679 C 95.274 486.838 102.196 486.86 97.948 489.011 C 97.205 489.268 96.315 490.1 95.491 489.679 Z M 94.102 487.806 C 94.769 485.469 99.153 485.469 95.773 487.79 C 95.29 488.211 94.086 489.12 94.102 487.806 Z M 32.799 469.683 C 34.454 466.475 33.824 472.162 32.799 469.683 Z M 37.139 464.449 C 38.598 462.244 38.419 466.579 37.139 464.449 Z M 43.649 457.334 C 45.841 455.067 47.034 459.469 43.649 457.334 Z M 37.682 454.597 C 39.141 452.391 38.962 456.726 37.682 454.597 Z M 41.479 453.502 C 42.738 451.69 43.4 455.505 41.479 453.502 Z M 18.558 447.984 C 15.602 443.983 22.974 449.594 18.558 447.984 Z M 36.054 431.607 C 36.623 429.828 37.421 433.506 36.054 431.607 Z M 53.414 405.436 C 55.877 402.232 54.917 407.011 53.414 405.436 Z M 60.483 400.679 C 60.787 396.822 62.555 399.506 60.581 401.411 L 60.483 400.679 Z M 55.856 400.406 C 58.21 398.381 56.132 402.258 55.856 400.406 Z M 58.009 395.455 C 57.976 393.528 61.861 395.272 58.476 395.731 L 58.204 395.642 L 58.009 395.455 Z M 58.639 393.404 C 58.617 390.824 62.176 392.048 59.11 393.555 L 58.834 393.561 L 58.639 393.404 Z M 59.924 390.006 C 61.844 388.001 61.183 391.816 59.924 390.006 Z M 59.924 388.173 C 63.342 383.816 61.899 390.226 59.924 388.173 Z M 61.552 382.93 C 64.004 381.987 59.761 380.402 63.109 380.224 C 64.66 380.895 62.257 385.004 61.552 382.93 Z M 62.322 377.621 C 63.57 374.211 64.183 376.16 63.922 377.373 C 66.223 377.544 61.519 380.826 62.322 377.621 Z M 59.761 374.412 C 62.544 369.299 59.045 379.016 59.447 375.154 L 59.761 374.412 Z M 63.163 372.97 C 67.91 370.717 60.478 376.322 63.163 372.97 Z M 62.442 372.071 C 62.523 369.488 66.537 369.559 63.429 371.869 C 63.18 371.999 62.734 372.39 62.442 372.071 Z M 62.637 368.578 C 62.778 364.499 66.553 366.411 63.721 368.932 C 63.152 369.803 62.339 369.795 62.637 368.578 Z M 59.382 367.131 C 59.126 364.769 65.062 359.97 61.991 364.045 C 61.096 364.872 60.472 366.864 59.382 367.131 Z"/>
  </g>
</svg>