<?xml version="1.0" encoding="utf-8"?>
<svg id="svg2955" viewBox="0 0 325.04 339.77" version="1.0" xmlns="http://www.w3.org/2000/svg">
  <defs>
    <path id="path-0" d="M 13.133 193.61 C 23.522 180.679 26.989 169.586 34.74 161.836 C 36.961 156.121 38.288 151.191 39.823 146.584 C 40.373 144.936 43.636 141.713 43.636 140.229 C 43.636 133.382 48.624 119.99 52.533 116.081 C 57.376 107.667 64.496 95.484 71.597 91.933 C 81.253 87.105 86.161 80.203 93.204 76.681 C 102.596 75.41 115.86 63.271 122.436 58.888 C 138.277 51.913 149.255 45.828 163.107 42.365 C 180.19 39.048 193.875 39.823 207.59 39.823 L 210.132 39.823 C 211.849 39.823 219.029 39.342 219.029 41.094" style="fill: none;"/>
  </defs>
  <g id="layer1" transform="translate(16.121 -383.23)">
    <path id="path2979" style="" transform="translate(-25.875 379.09)" d="m201 343.23c-7.76-2.69-13.74-10.14-5.59-16.91 4.56-3.67 16.29-10.66 11.96-16.12-2.59 1.93-0.48-9.44 1.28-11.63 0.41-3.77 0.3-8.94-1.4-2.6-1.04-5.67-2.29-10.64-6.29-14.85-2.58 1.92-1.33 14.41-4.74 11.02-0.66-6.81 5.18-13.11 2.69-20.11-1.85-6.54 0.8 6.41-3.14 5.9-1.76-6.05 3.73-13.73 0.88-19.93-1.06-2.75 1.38-6.74-2.99-5.99 0.04-3.78 3.49-11.6 2.32-12.71-1.14 3.26-5.75 10.37-4.34 2.6 4.52-8.55-6.63 4.36-3.27-2.31 2.27-2.32 9.91-11.51 2.39-5.08-3.17-0.97 5.84-8.15 5.87-11.99 3.38-2.5 5.84-10.28 5.77-13.11-4.14 6.6-6.6 15.13-13.86 19.24 1.72-3.41 1.11-9.43 0.5-13.05 4.52-1.32-1.22-6.11 5.37-6.79 3.76-2.24 6.77-9.82 5.76-12.42-1.64 3.79-7.78 12.56-11.08 10.49 6.36-3.17 0.46-4.64-2.09-7.87 1.05 0.02 7.93 0.59 5.48-4.09-6.04-2.09-9.77-6.32-16.01-7.63 4.96-1.84 14.15 7.21 15.33 2.83-4.09-2.14-14.98-8.7-5.3-10.77 4.65-3.37-12.25 2.96-4.07-1.92 4-0.18 14.16-12.44 5.73-6.17-4.57 1.92-8.69 10.33-14.08 6.76 2.28-0.54 9.77-5.08 4.92-5.02-3.5 2.36-8.38-9.22-7.38-0.35-2.82 5.31-2.82-8.62-4.37-1.65-2.85 6.58 0.61-6.42-2.61-5.69-2.6-0.46-3.63-8.64-4.01-1.44 3.4 2.72 2.88 8.62 3.75 10.84-5.48 3.34-2.13-11.12-4.44-2.53 0.57 3.66-0.25 6.67-2.43 7.88 4.94 5.75-5.72 11.54-3.26 17.1 0.43 5.8-4.61 13.72-4.1 18.09 5.34-3.59-3.34 6.3-3.59 8.43-6.17-0.02 2.22-10.7 1.08-12.82-1.09 2.92-9.21 8.47-5.75 3.2 6.4-3.09-7.33-6.9 2.69-7.39 2.08-2.37-2.3-5.15 2.75-7.05 1.73-2.32-6.54 0.12-1.76-3.3 1.41-4.86 0.98-7.1-2.38-9.88 8.87-3.02-9-2.86-2.71-8.36-0.26-3.09-12.11-1.99-6.88-6.44-3.23-2.54-0.83-7.17-4.44-10.64 0.86-7.8-4.86 4.32-8.7 0.29-0.6-7.22 7.11-13.12 11.61-18.08 12.18 2.09-7.93 13.86 1.66 15.74 3.55-0.59-4-4.95 1.98-3.41 5.34 1.53 8.76 9.11 13.26 8.41 0.89 2.49 4.54 6.25 4.31 1.11 6.97 8.14 5.44-6.1 0.14-7.97-2.05-2.59 3.42-11.86-1.42-4.47-5.18 4.15 0.98-10.53-6.9-9.34-8.07-3.86-16.99-4.76-25.82-4.35-10.73-2.91 17.26-0.42 5.98-4.77-6.99-1.78-17-0.45-22.1-4.91 6.31-0.33 14.51 3.19 19.73 2.18-7.86-3.1-14.67-9.25-19.3-16.21 1.9-1.36 5.7 4.43 6.81-1.36 3.66-4.74 6.95-2 1.57 1.3-4.89 5.58 6.85 6.52 10.83 8.68 0.57-3.73 0.09-8.95-1.22-12.95-0.42-6.43 2.16-5.34 1.56-0.04-0.75 4.7 4.68-11.178 3.14-1.81-3.76 7.7 5.04 12.35 10.42 15.78 4.47 2.73 11.6 6.49 13.33 1.18 1.87 3.91 12.62 2.27 10.79 6.93-2-4.06-11.15-0.88-3.41 1.33 1.82 2.76-6.97 0.25-2.77 5.29 5.19 3.45 9.13-2.43 11.16-7.24 0.1-3.01-5.39-6.27-3.57-10.14-3.19 0.09-6.73 8.72-8.77 4.03-6.19-7.03 1.95-13.76 2.23-20.43-1.18-3.19-6.86-12.752-0.6-5.64 6.75 5.84-0.94-7.151-3.42-9.237-2.8-2.218-5.22-10.832-0.36-3.96 3.9 4.715 8.65 16.417 14.06 7.761 3.98-2.978-3.06-6.438 2.55-7.061-0.94-5.098 1.94-8.374 3.56-9.033-3.41-4.421 0.54-6.326 0.52-11.571 4.81 1.219 0.99-6.611 3.69-9.779 1.54-2.96 2.38-4.946 2.07-9.105 3.41-1.169 1.76 8.141 3.13 0.857-2.98-5.414 1.64-11.855 3.54-15.666 3.33-6.118 6.9-14.398 12.39-20.36 2.25-2.448 7.13-9.4243 7.92-4.4212 7.67-2.7168-9.11 7.6752-2.76 7.2182-2.96 3.555-1.27 15.717 1.68 5.718 2.2-2.801 4.83-10.854 7.96-9.81-5.57 6.858-8.21 15.261-10.34 23.787-1.68 9.659 7.43-6.976 4.22 1.532-3.83 2.93-4.57 8.072 0.2 9.25-2.94 4.533-0.96 5.122 3.12 4.389-1.44 2.468-5.93 3.261-7.87 5.167 0.75-2.83 2.04-12.291-0.29-4.541-0.91 2.99-5.83 11.469-0.69 10.516-1.31 3.998-6.55 7.498-4.9 0.56 1.28-4.348 4.16-16.496 1.61-17.017-1.93 3.844-1.47 14.799-4.53 14.438 0.94-3.753 2.81-18.855-0.62-7.754-0.34 6.115-1.61 11.846-2.42 17.713-0.77 4.983 6.11-12.863 3.87-3.683-3.77 9.245 8.92-3.342 5.6 5.418-0.56 3.3 6.59 1.7 0.12 3.342-5.12-0.02-6.2 9.687-0.91 7.66-4.16 1.294-8.36 9.736-12.09 3.616-1.26 7.647 7.54 7.827 12.69 3.438 4-1.987-3.53 5.269 2.13 2.807 4.37-1.096 5.74-9.621 5.53-1.437 0.29 3.672 2.02-6.635 3.62-7.507 1.17-0.264 0.67 5.041 2.05 0.048-1.1-5.21 5.4-8.678 4.57-13.561 3.49-5.34 4.3-13.629 7.48-17.372-1.96-4.893 4.2-5.835 2.62-11.474 4.63-4.231 1.59-13.222 7.39-17.338 2.66-4.521 4.15-10.514 6.4-14.566 1.98 5.885 5.67-6.8253 6.03 0.638-0.08 7.272 5.17-11.678 5.86-3.5393-3.33 3.1669 0.37 6.0513 2.93 4.6083-1.83 2.225-1.16 6.484-0.81 7.902 8.51-4.017 0.2 3.47 0.24 7.043 2.92-4.928 4.4 6.62 0.45 8.046-1.3 2.779 4.63 4.062-0.4 5.742-2.67 3.791 4.31 4.263-0.93 7.735 4.13 5.329-5.33 9.284-0.21 12.718-0.7 2.713-6.86 8.299-1.16 6.647-0.15 3.63-11.06 12.215-2.18 10.864-2.73 3.659-8.62 5.772-8.56 9.968 7.76 0.1-6.96 4.887-3.6 9.495-2.3 1.486-8.89 5.211-2.32 5.061-0.51 3.42-11.42 3.07-4.6 5.9-3.98 2.91-1.66 10.77 3.08 9.9-2.99 1.65-10.28 3.68-2.26 4.52 2.04-0.91 7.01-5.99 4.03-0.48-2.74 3.15-8.63 5.19-2.77 9.08-6.68-2.2-6.32-0.98-1.17 2.12 4.33-2.1 8.47-5.16 12.29-8.08 2.99 2.01-11.48 9.33-1.75 5.88 3.08-0.56 13.91-8.81 10.01-2.44-6.25 4.64-15.35 4.19-20.86 9.4 2.32 6.66 13.64-0.79 19.04-2.52-0.45 6.03-11.26 5.5-16.31 6.94-3.68 1.69-9.05 2.84-1.98 5.68 3.11 1.95 16.56-5.06 7.88 0.91-4.33-0.17-9.48 5.33-7.49 7.54 5.13-2.89 4.55 0.51 6.58 3.38 1.82-4.63 2.77-1.58 2.71 1.14 3.25-7.08 10.29-10.12 13.38-17.83 1.12-5.13 3-1.95 2.71 0.85 1.42-3.72 5.27-7.77 8.85-5.86-1.88 4.47 5.7-7.79 5.74-0.46 5.26-2.81 9.43 4.71 12.96 4.93 3.76-2.59 7.19-5.92 10.71-8.54 6.76 0.07 9.2-7.37 14.43-4.86 3.21-2.89 10.85-6.92 7.04 1.12-5.9 19.83-19.13 36.03-30.95 52.56-1.7 2.48-9.58 13.83-2.8 7.46 11.64-14.54 22.25-30 31.29-46.29 2.51-6.89 6.74-15.17 4.19-21.6 9.13-3.52 2.51 11.48 0.85 15.52-2.47 11.63-10.56 20.89-16.78 30.71-10.85 15.34-22.2 30.84-37.07 42.52-7.34 5.62-8.58-2.76-4.16-7.58 1.41-12.28-0.26-25.36 5.54-36.81 2.83-3.88 2.12-5.71-1.5-7.5 0.3-3.28-6.12-8.39-2.59-2.88-4.4 2.76 4.04 5.8-3.9 6.82 0.04 2.25 0.56 3.89-3.76 4.61-1.66 1.44 5.83 2.73-0.13 3.49-5.54 0.64 4.31 4.11-3.7 3.93 5.12 4.51-6.81 0.92-2.44 6.83-0.97 1.06-7.76-1.65-3.36 1.95 4.41 1.9-7.46 2.61-1.07 6.91 2.26 3.68 4.26 8.33 1.17 11.27 4.88 2.66 0.22 7.91-0.94 1.41-4.76-0.6 7.66 9.72-0.12 10 2.57 1.16 6.62 10.78 1.72 5.59 0 3.69 5.52 5.69 0.81 7.1 0.67 3.86 3.03 5.21 4.93 1.78 0.89 4.74 2 3.17 5.3 1.06-0.89 4.06-1.84 7.41 1.87 2.26 3.18-0.99 14.31 0.76 5.87 4.74-3.96 2.68-6.79-0.11-3.04-3.38-3.02 1.62-11.72 9.84-7.2 10.63 2.49-7.82 4.94 1.89 0.32 2.82-0.54 4.12-6.92 6.71 0.85 5.89 6.91 2.78-12.68 5.75-2.6 9.9-3.27-2.75 5.51-5.92 2.77 0.16-0.48 3.7 1.4 8.38-3.88 3.85-6.89-4.58 2.16 6.39-0.83 9.64 1.76-0.03 6.64-7.07 3.95-0.94-2.3 2.75-5.64 8.68-0.11 6.13 3.04 5.26 1.82-8.69 3.57-4.86 2.33 2.96 3.02 10.52 5.77 10.38-0.65-2.97-1.83-15.2 0.56-6.63-1.54 6.13 6.38 8.01 1.56 12.29-3.57-4.01-2.82 3.93 1.89 1.09 19.39-1.87 38.88-2.68 58.3-3.9 5.21 2.06-7.61 2.41-10.01 2.64-16.75 1.34-33.72 1.1-50.35 3.16 18.74 1.33 37.62-0.63 56.38 0.56-4.43 2.22-16.92 0.61-19.67 2.19 5.82 0.98 17.46-0.99 20.09 1.51-7.45 1.72-16.01 0.26-22.85 3.05 3.94 1.56 15.2-1.09 15.41 1.75-20.02 1.65-40.09 2.92-60.05 5.23-3.74-0.1-13.38 4-4.34 3.54 12.84-0.82 25.75-2.2 38.62-1.33-3.55 3.1-15.61 0.68-22.4 2.3-8.85 0.73-17.74 1.18-26.6 1.64-1.84 2.94-6.91 3.43-7.48 5.17-1.8 2.42-9.33 3.85-12.78 7.09 7.3 1.95-13.53 1.94-3.73 3.51 7.72-0.47 3.1 2.04-1.16 2.73-5.21 2.93 9.13 0.66 0.91 3.89-6.26 0.13-9.78 8.48-16.91 5.41zm9.41-5.73c0.67-2.92 2.77-10.71 0.66-11.3-2.2 3.12-6.55 7.06-2.89 0.64 3.73-2.37 2.91-6.85-0.57-1.28-5.01-1.12-15.83 7.93-9.7 10.26 1.13-4.12 4.76-9.19 3.27-1.49-0.44 8.58 5.15-4.48 4.97 1.67-2.15 3.78 2.57 5.52 4.26 1.5zm10.51-16.24c-4.6-2.58-6.52 6.98-1.73 1.37l0.79-0.64 0.94-0.73zm-6.82-2.88c1.7-4.81-6.72 4.93 0 0zm5.59-2.95c1.64-7.01-5.14 7.71 0 0zm-2.69-2.49c-2.6-3.35-1.88 5 0 0zm3-4c-2.41-2.35-2.48 3.74 0 0zm-9.26-4.02c3.14-3.84-0.46-15.35-0.81-5.06-1.51 2.12-4.43 12.53 0.81 5.06zm5.84-2.51c2.9-4.3-4.16-13.21-3.5-4.15 0.79 3.75-2.69 13.3 2.78 6.54l0.42-1.14 0.3-1.25zm-2.33-2.91c0.56-7.84 0.67 7.12 0 0zm18.5 6.74c-2.29-5.44-13.84 1.6-5.03-1 3.37-1.8 1.6 6.04 5.03 1zm-9.83-2.61c-2.18-0.52-5.42 5.24-0.37 1.29l0.37-1.29zm13.17-3.72c-2.65-7.25 0.56 9.84 0.33 0.95l-0.33-0.95zm-8.69 1.49c1.53-3.7-3.73-13.29-2.22-4.11 1.09 1.62-0.78 8.36 2.22 4.11zm4.4 0.4c3.48-3.5-1.42-11.55-0.87-2.94-1.07 1.73-4.43 5.77 0.87 2.94zm27.44 0.49c-7.71-0.55-2.99 1.24 0 0zm-36.79-1.54c2.75-6.11-0.27-14.21-5.07-16.74-2.54 7.35 5.92 11.94 3.53 17.99l0.93-0.37 0.61-0.88zm-3.79-4.02c-1.61 2.02 0.97 5.63 0 0zm53.58 2.56c-7.71-0.55-2.99 1.24 0 0zm-16.26-2.04c-1.98-10.63-3.74 6.28 0 0zm6.02-0.75c-2.53-5.21-2.04 5.02 0 0zm-33.44-5.05c-4.95-7.45 1.51 11.66 0.66 1.19l-0.66-1.19zm10.17 3.86c-5.85-7.26-3.69 5.89 0 0zm21.77-2.31c-2.96-3.39-0.44 3.47 0 0zm-44.5-6.99c0.63-3.58-1.43-11.99-2.64-5.03-6.35-1.38 0.97-13.19-6.88-12.17 2.61-1.86 4.51-8.84-0.12-5.25-2.35 4.92 1.04-13.91 1.82-4.87 6.66-1.31 1.29-10.97-2.88-3.49-5.95 5.46-0.46 13.29-0.33 20.52 2.72 5.59 8.03 7.4 10.05 13.18 0.25 4.83 2.02-1.82 0.98-2.89zm19.03 1.57c0.96-2.07-0.35-6.54-2.88-7.41-0.33 2.94 4.44 16.12 2.88 7.41zm6.28-0.89c-4.01 0.18 0.45 5.88 0 0zm20.23-3.32c-3.99-9.69-0.15 13.85 0.34 2.97l-0.12-1.49-0.22-1.48zm-50.54 3.63c-2.02-5.68-4.78 2.89-0.07 1.39l0.07-1.39zm17.36-2.5c-4.29-5.03 0.98 4.56 0 0zm14.24-2.23c-2.05 0.64 1.44 4.77 0 0zm-5.49-1.56c-3.77-0.29 2.86 5.8 0 0zm15.39 2.29c-2.96-3.39-0.44 3.47 0 0zm-6-1c-2.96-3.39-0.44 3.47 0 0zm-21.52-3.25c-1.64-5.43-1.36 7.03 0 0zm-4-2.5c-0.62-7.24-3.68-1.1-0.98 1.75 0.79-0.06 0.97-1.2 0.98-1.75zm21.11-4.97c-3.04-3.27 0.81 12.14 0.76 3.3-0.06-1.13-0.22-2.29-0.76-3.3zm-7.11 1.47c-3.3-2.6-1.44 7.28 0 0zm13.47-1c-0.4-4.57-3.69-9.11-1.99-1.46-0.21 1.83 3.34 9.03 1.99 1.46zm-31.85-0.48c-3.61-0.41 1.59 5.13 0 0zm8.2-1.81c-5.1-7.48 1.87 8.71 0 0zm4.45 0.39c-3.31-0.61 1.96 5.04 0 0zm-14.25-3.97c-1.27-4.9-4.46 5.73-0.11 0.84l0.11-0.84zm17.6-0.61c-2.05 0.64 1.44 4.77 0 0zm-2.6-0.77c-2.53-5.21-2.04 5.02 0 0zm-11-2c-2.53-5.21-2.04 5.02 0 0zm-6-1.56c-2.6-3.35-1.88 5 0 0zm35.52-2.91c-1.12-3.1-5.04-12.43-3.53-3.99 0.84 2.97 7.09 13.99 4.01 4.99l-0.48-1zm-8.52 1.97c-2.69-4.03-2.36 3.89 0 0zm-23-2.56c-2.77-2.14-2.37 3.81 0 0zm7 0.62c-2.35-5.54-2.73 3.92 0 0zm27-1.06c-2.71-3.69-0.96 3.19 0 0zm-15.4-2.73c-2.05 0.64 1.44 4.77 0 0zm5.58 0.51c-4.17-1.58 2.6 4.49 0 0zm0.91-5.09c-3.14-1.16 1.86 8.36 0.67 1.32l-0.67-1.32zm-3.27 0.81c-4.65-7.77-1.63 6.32 0.5 1.24l-0.5-1.24zm14.14-1.96c2.78-6.91-5.74-0.25-1.18 1.16l1.18-1.16zm-20.96-1.04c-2.53-5.21-2.04 5.02 0 0zm13.24-1.01c-3.71-10.04-0.41 7.96 0 0zm2.98-1.67c-5.52-1.7 2.14 6.03 0 0zm-49.62-0.55c-2.05 0.64 1.44 4.77 0 0zm53.4-2.3c-4.36-2.38-2.07 4.89 0 0zm-21-2.47c-2.3-4.99-0.75 4.62 0 0zm8.28-0.73c-1.65-3.01-4.03-9.71-2.8-2.49-0.26 1.39 4.62 7.53 2.8 2.49zm3.93-0.78c-3.62-10.96-0.73 9.17 0 0zm-34.96 0.59c-2.36-5.12-3.37 4.74 0 0zm40.11-0.08c-2.54-4.61-0.19 4.82 0 0zm-13.36-1.5c-2.71-3.69-0.96 3.19 0 0zm16.66-2.25c-1.64 0.82 0.89 5.13 0 0zm-47.37 0.25c-0.33-6.43-2.32 6.15 0 0zm11.71-0.94c-3-5.79-3.45 3.99 0 0zm28.28-1.1c-2.42-6.29 0.56 6.45 0 0zm5.72 0.98c-2.41-2.35-2.48 3.74 0 0zm-41.19-6.69c1.45-3.1 2.76-9.79-0.33-2.83-3.68 2.19-3.34 9.33 0.33 2.83zm27.17-1.28c-4.75-5.8 2.09 8.58 0.42 0.91l-0.42-0.91zm8.02-0.97c-1.33-5.96-4.42-3.44-1.37 1.02 2.01 5.92 2.94 2.81 1.37-1.02zm-45 0.88c-2.77-1.73-1.6 4.57 0 0zm29 0.56c-2.07-3.69-0.92 4.58 0 0zm12.45-1.69c-4.7-11.61-0.28 8.5 0 0zm-5.09-3.25c-4.37-4.95-0.28 4.95 0 0zm-37.08-8.75c-0.3-5.65-11.37 9.33-4.93 7.62 1.81-2.42 3.64-4.88 4.93-7.62zm25.72 7.75c-2.53-5.21-2.04 5.02 0 0zm10.6-4.23c-3.61-0.41 1.59 5.13 0 0zm-28.6-2.83c-2.77-2.14-2.37 3.81 0 0zm6 0.64c2.41-5.52-1.46-3.03-1.75 0.7 0.59 0.47 1.75 0.18 1.75-0.7zm25.97-3.7c0.24-3.03-4.64-8.23-2.29-1.87 0.03 3.19 4.01 8.11 2.29 1.87zm-26.99-7.38c2.57-4.67-1.04-6.42-2.12-0.66-2.43 3.73-1.93 10.23 0.46 2.95l0.66-1.19 1-1.1zm-5.38 2.27c-2.05 0.64 1.44 4.77 0 0zm24.4 1.17c-2.77-2.14-2.37 3.81 0 0zm36 0.56c-2.71-3.69-0.96 3.19 0 0zm3-2c-2.69-4.03-2.36 3.89 0 0zm3.45-4.09c-4.64-2.23-0.08 5.15 0 0zm-76.88-1.68c-5.27-1.36-2.68 6.17 0 0zm47.79 0.28c-4.08-3.8 0.12 4.79 0 0zm22.99-1.04c-3.1-4.89-0.1 6.25 0 0zm9.65 0.15c2.3-0.76 6.52-7.56 1.26-4.3-2.52 0.41-4.77 8.94-1.26 4.3zm-70.03-4.06c-3.23 0.4-3.47 7.53-0.41 1.32l0.41-1.32zm-6.97 0.2c-2.79-1.24-4.1 6.07-0.44 1.07l0.44-1.07zm69.09-5.54c-0.35-3.21 1.47-17.64 1.47-7.52-0.17 5.59-0.49 11.16-0.73 16.74 17.03-17.99 33.13-37.55 43.45-60.25 2.93-3.49 2.15-11.03-1.77-4.02-4.33 15.02-12.53 29.06-23.63 40.05 0.46-5.07 8.55-10.95 11.39-16.83 4.5-7.14 9.3-14.92 10.21-23.3-3.98 3.16-4.06 12.37-7.25 14.9-0.28-4.32 5.41-12.94 2.4-14.52-2.88 7.5-7.14 14.15-11.12 21.08-3.58 3.53 2.04-7.77 2.72-9.92 1.7-7.3-3.91 5.53-5.17 7.29-3.11 6.12-9.55 9.5-13.93 13.87 1.5-3.6 6.13-8.71-0.93-4.66-7.64 3.59-6.73 13.79-8.89 20.64 0.1 2.24-0.23 13.62 1.44 14.18 0.23-2.57 0.29-5.15 0.34-7.73zm0.98-15.97c1.6-10.97 3.35 3.15 0 0zm-40.07 22.81c-2.35-5.54-2.73 3.92 0 0zm-32.55-2.31c1.68-5.17 2.24-9.52-1.82-3.29-2.26 1.49-0.16 6.91 1.82 3.29zm40.73-0.97c-4.17-1.58 2.6 4.49 0 0zm-87.18-0.34c-2.77-2.14-2.37 3.81 0 0zm84.12-1.12c-3.71-3.75 2.03 6.56 0 0zm7.9-0.8c-6.7-5.26 3.26 6 0 0zm-37.85-1.17c4.96-5.38-2.97-1.93-2.55 1.65 1-0.3 1.78-1 2.55-1.65zm-6.21-5.6c4.56 3.76-1.33-7.24-2.86-0.38-2.19 4.79-4.55 6.45 2.86 0.38zm-7.53 2.14c0.24-3.25 6.06-5.36 1.96-5.72 1.89-5.51-10.52 9.58-1.96 5.72zm-39.93-1.89c-0.31-3.54-4.42 3.57 0 0zm93.5 0c-2.69-4.03-2.36 3.89 0 0zm-56.33-2.67c-5.19-0.69-2.78 5.39 0 0zm19.33-0.95c-2.44-3.78-2.13 6.65 0 0zm-5.99-1.87c-6.36-3.65 1.47 4.97 0 0zm-45.01-1.54c-4.36-2.38-2.07 4.89 0 0zm53.46-1.04c-2.77-3-0.39 4.92 0 0zm-15.49-3.2c-3.55-0.42-6.99 6.49-1.59 1.87l0.79-0.7 0.8-1.17zm3.45 3.66c6.06-6.34-7.48 1.65 0 0zm17.18-5.12c-2.05 0.64 1.44 4.77 0 0zm-4.6 0.79c-2.35-5.54-2.73 3.92 0 0zm-66.81-0.74c-4.45-0.74 0.56 1.82 0 0zm34.08-2.39c-4.43-5.43 0.11 7.14 0 0zm22.73 1.01c-2.41-2.35-2.48 3.74 0 0zm-19-1.94c-2.69-4.03-2.36 3.89 0 0zm-7.24-3.44c-6.09-7.44-4.25 9.17 0 0zm14.74 2.44c-1.52-3.5-3.77 3.33 0 0zm24.1-1.73c-2.05 0.64 1.44 4.77 0 0zm-34.94-4.54c-1.61 2.02 0.97 5.63 0 0zm23.78 2.74c4.04-4.78-7.48 3.59-0.9 0.63l0.9-0.63zm-66.44-0.93c-5.7-5.16-4.78 0.8 0 0zm60-0.6c-2.41-2.35-2.48 3.74 0 0zm-5.47-1.75c-3.64 0.27-2.62 3.72 0 0zm45.22-1.77c-4.75-1.45-0.6 6.26 0 0zm-47.77-3.86c-0.46-1.86-2.55 0.59-1.34-3.78 1.07-12.2-13.95-1.91-20.13-5.86-5 1.8-15.44-8.25-11.01 2.08 0.7 2.94 2.72 9.87 4.86 9.13-1.71-3.78 0.17-7.51 2-1.72 1.63 5.34 12.57 4.98 15.12 2.07 1.19-5.47 1.53 4.54 2.62 2.16 1.11-2.24 2.65-7.53 2.68-2.22 0.07 4.22 3.02-1.6 2.47 3.57 1.56-1.31 2.61-3.39 2.73-5.43zm17 2.07c-4.22-0.74-1.93 7.31 0 0zm10.62 0.64c-2.05 0.64 1.44 4.77 0 0zm-23.73-3.68c2.52-4.37-2.49-8-1.59-1.54-0.88 3.44-1.6 10.23 1.1 3.14l0.49-1.6zm87.3 3.76c5.16-6.37-2.29-5.82-4.35-0.6-2.91 3.72 3.25 2 4.35 0.6zm-21.67-0.35c-0.31-3.54-4.42 3.57 0 0zm15.81-3.8c3.23-2.91 3.03-4.06-0.94-3.81-4.52-4.72-4.6 13.19 0.94 3.81zm-14.35-4.51c-3.75 0.46-6.81 10.28-1.47 2.82l0.77-1.15 0.7-1.67zm7.4 0.3c1.35-1.94 3.46-3.79 5.7-5.7-3.65-5.08-16.84 6.65-6.39 2.04 0.34 3.59-8.8 5.57-5.87 8.86 2.19-1.69 3.63-4.63 6.56-5.2zm-69.55 3.07c-0.78-3.48-4.75 4.16-0.69 1.06l0.69-1.06zm-8.15-4.33c-1.61 2.02 0.97 5.63 0 0zm100.34 2.77c-0.75-4.62-2.3 4.99 0 0zm-6.24-2.75c1.94-4.4-2.92-7.93-2.06-1.02-0.29 1.88 0.63 3.29 2.06 1.02zm-7.76-1.31c-2.77-2.14-2.37 3.81 0 0zm-79-0.5c-2.41-2.35-2.48 3.74 0 0zm82.61-4.51c-4.96-5.35 0.56 11.85 0.3 1.76l-0.3-1.76zm15.37 1.76c-1.87-2.93-2.12 6.71 0 0zm-104.53-0.91c0.09-3.51-7.31-0.51-0.81 1.64l0.81-1.64zm10.05 0.72c-2.96-3.39-0.44 3.47 0 0zm28.13-3.53c-5.75-5.52 2 7.68 0 0zm-48.38 0.78c0.68-3.56 7.76 5.77 4.22-1.2 7.76-3.01-9.14-5.39-9.47-7.4 5.03 0.36 17.69 5.2 11.89-4.39 1.27-6-5.8-11.73-10.19-5.87-4.83-1.68 3.22-11.46-2.87-4.15-2.56 5.21-2.22 1.02-1.06-1.71-2.36 2.45-5.59 6.49-0.25 7.02 3.69 1.09 8.71 4.84 1.71 4.18-8.4 2.97-2.24 17.28 5.43 14.66l0.5-0.48 0.09-0.66zm-5.74-1.23c0.1-3.68 5.89 2.3 0 0zm5.49-2.02c2.69-4.03 2.36 3.89 0 0zm2.67-9.67c-2.25-6.6 4.98 2.59 0 0zm-4.67-4.33c3.68-4.02 3.84 3.91 0 0zm5.5-1c0.31-3.54 4.42 3.57 0 0zm-34.86 16.43c0.69-4.88-11.72 0.4-10.68 0.15 2.59 0.43 10.97 5.33 10.68-0.15zm41.31-1.52c-4.49-5.33 1.57 6.57 0 0zm5.05 1.15c-3.74-6.29-3.44 3.71 0 0zm107.36-0.56c-1.01-5.94-2.07 5.09 0 0zm-158.04-2.49c-1.81-2.66-8.76-0.44-12.32-0.19 2.17 3.46 9.05 0.95 12.32 0.19zm3.68-2.01c-5.11-3.57-3.31 2.13 0 0zm43.36-0.5c-1.01-5.94-2.07 5.09 0 0zm31.07-2.34c-3.54-7.76-1.94 3.37 1.19 3.37-0.11-1.21-0.69-2.29-1.19-3.37zm-17.83-0.89c-2.05 0.64 1.44 4.77 0 0zm-67.6-0.14c-3-1.79-13.74-0.82-5.55 1.46 4.67 0.54 9.37 0.2 14.05 0.22-2.83-0.56-5.67-1.12-8.5-1.68zm-11-1.59c-2.43-2.64-9.17-5.04-11.53-4.72 2.33 1.81 9.09 8.96 11.53 4.72zm8.27-3.44c-3.46-1.5-8.66-9.37-7.14-0.88 0.84 3.4 17.66 6.96 8.16 1.55l-1.02-0.67zm71.83-0.7c8.7-6.9-5.34-16.59-10.38-7.46-5.5 4.3 3.76-0.94 4.93 2.63 2.1 7.04-6.88 8.38-7.32 1.23-2.57 8.92 8.72 7.87 12.77 3.6zm-44.37-5.66c6.44-7.05-8.57-7.38-3.03-0.44-1.04 6.53 0.37 4.43 3.03 0.44zm17.4-0.4c1.12-3.87-6.46 5.13 0 0zm47.84-4.3c3.63-4.37-7.06 3.33 0 0zm0.53-5.04c-0.33-3.25-5.93 2.3-0.88 0.71l0.88-0.71zm-35.31-2.68c-4.45-0.74 0.56 1.82 0 0zm38.57-1.61c0.71-2.57-0.93-4.764 3.41-5.84 0.03-5.356 5.2-7.764 7.79-13.179 1.75-6.242 4.7-11.547 6.91-17.952-7.05-0.075 5.95-7.346 2.7-12.542 0.51-7.275 4.43-16.15-0.19-22.526-6.78 1.638 6.51-17.352-0.71-10.421-2.31 4.677-1.51-1.348-1.82-3.573-0.42 1.891-3.69 8.802-4.51 2.059 1.08 6.036-5.64 3.225-2.85 9.665-8.5 2.301-2.12 10.298-6.31 15.555-0.64 5.913-7.36 14.692-6.22 18.432 8.24-5.939-5.73 6.622-0.25 6.944 2.12-8.415 3.1 3.614-1.13 5.14-1.93 3.516-0.7 9.246 2.48 4.583 0.1 7.946-7.39 9.192-6.25 17.492 3.83-3.691 5.77-13.116 11.76-16.547 3.24 4.918-7.57 9.054-8.29 14.484-1.58 2.551-4.35 12.516-0.83 4.966 4.4-7.998-0.21 3.76 0.1 5.23 1.51-0.39 2.94-1.07 4.21-1.97zm2.38-41.12c4.15-7.419 0.84 5.031-0.51 1.219l0.51-1.219zm3.86-10.031c0.92-4.581 2.07 3.689 0 0zm7-17.559c2.69-4.03 2.36 3.893 0 0zm-64.54 60.931c-2.77-3.002-0.39 4.919 0 0zm5.93-1.513c1.73-6.538-5.32 5.357 0 0zm26.8-4.444c-4.39-5.071 1.79 7.737 0 0zm10.79-3.283c-3.47-0.254-1.17 6.142 0 0zm-28.98-3.813c-3.38-3.553-5.13 6.527-0.41 0.963l0.41-0.963zm-11.02-5.187c-2.07-0.9-4.36-4.074-2.97 1.337 1.13 3.186 2.66 0.48 2.97-1.337zm12.19-2.691c0.85-9.204-3.23 2.632-0.76 3.684 0.49-1.165 0.61-2.443 0.76-3.684zm-5.99-0.217c-4.18-1.576 2.61 4.481 0 0zm35.24-1.424c-0.51-3.322-3.99 5.053 0 0zm-35.84-7.117c-3.15 0.861 0.84 10.279 0.29 2.268v-1.027l-0.29-1.241zm-6.93 0.301c-4.66-5.479 0.84 6.236 0 0zm44.35-5.602c-2.41-2.349-2.48 3.741 0 0zm-42.82-2.158c-4.18-1.576 2.61 4.481 0 0zm5.79-6.648c-3.03 0.234-3.67 10.941-0.87 2.644l0.46-1.207 0.41-1.437zm40.63 1.136c-2.05 0.636 1.44 4.767 0 0zm-44.94-10.521c-1.64 0.818 0.89 5.125 0 0zm49 0c-1.64 0.818 0.89 5.125 0 0zm-38.66-3.488c-1.02-8.44-4.89 8.576-0.09 1.527l0.09-1.527zm4-0.762c2.87-5.141 3.08-12.824 0-17.5-0.88 6.616 2.12 11.722-1.63 18.258-0.53 4.578 1.9 1.246 1.63-0.758zm-9.02-0.75c-1.57-4.921-2.14 6.972 0 0zm4.02-3.809c-2.6-3.348-1.88 5.003 0 0zm3.6-2.67c-2.05 0.636 1.44 4.767 0 0zm39.4-1.33c-2.41-2.349-2.48 3.741 0 0zm20 0.059c-2.69-4.03-2.36 3.893 0 0zm-104.76 309.28c-10.4-2.96-5.61-16.33 0.91-21.13 4.96-7.47-9.59-2.19-13.31-3.07-32.7 1.85-65.321 4.78-97.881 8.28-2.226 0.59-7.985 0.17-4.995-1.93-7.751-1.38-18.604 2.74-23.33-5.71-5.3805-5.95 1.728-18.09 9.503-13.77 6.501 2.6 0.373 12.72-3.845 7.8 6.374-1.96-1.121-8.38-3.068-1.7-0.735 12.81 19.084 4.76 14.398-5.16-2.211-8.76-8.791-15.59-12.204-23.9-5.509-9.14-2.715-20.52 1.062-29.77 2.286-7.93 15.329-12.84 7.743-21.72-0.663-5.85-8.903-9.28-1.788-14.92 7.047-5.24 16.561-3.5 24.814-5.02 10.176-1.08 20.449-1.73 30.583-2.84 3.735-6.03 7.345-14.31 15.646-14.92 7.712-4.42 10.772-13.51 16.822-19.66 0.85-3.31-6.96-5.4-3.15-10.46 1.46-5.03 10.32-11.29 13.65-6.44-6.79-1.16-15.92 6.71-10.02 12.33-0.67-7.49 0.74-1.22 2.93-1.01 0.24-5.51 9.68 2.36 4.88 5.62-4.52 6.89-10.57 13.01-13.41 20.83-5.03 2.39-5.87 11.03-4.92 14.14 8.13 0.57 16.36 0.33 24.38 1.9 4.2 3.85-1.09 11.29-2.5 16.66-2.26 3.8 5.24 5.43 6.74 8.41 7.34 4.97 12.39 13.14 11.56 22.24-0.19 4.03-0.22 12.51 3.66 4.61 3.54-2.11 5.5-11.77 1.4-4.15-3.57-1.05 6.34-12.47-2.38-10.5 1.12-2.83 4.87-6.36-0.04-7.06 5.08-5.08 1.61-15.53 8.8-18.56-1.88 2.9-5.16 12.4 0.09 6.86-2.05 2.9-4.96 12.16-0.29 7.26-1.6 2.66-4.66 13.9-0.68 5.67 5.29-8.1-1.65 6.52 1.38 7.51 2.49 1.08-1.38 5.52 3.56 6.65-2.26 0.4-6.56 8-0.88 3.24 0.61 5.16-5.64 12.76-7.93 18.32 1.97 10.52 3.69-11.04 6.12-0.17 1.48 7.5 0.81 15.64 4.77 22.46 0-3.39-3.91-15.63 0.8-7.58 1.88 3.68 8.8 15.44 0.98 14.33-6.02-7.9 2.87 6.87-1.69 9.04-0.86 6.72-10.24 9.68-11.66 17.27-1.12 3.94 3.41 9.73 1.97 2.42-0.1-5.06 5.09-5.62 2.01-0.16 1.29 6.05 6.1 1.18 4.45-2.65 3.07 1.86 11.22 1.37 5.21-0.35-0.1-7.68 7.73-11.85 10.15-18.36 1.28-6-0.2 8.5 2.75 3.02 1.88-2.71-5.14-11.89-0.28-10.45 2 3.08 2.46 13.58 6.54 7.18 1.58 7.13-2.85 10.84-9.45 10.45 0.81 0.24 12.06-0.21 7.39 2.03-3.05-0.57-16.58 2.19-6.94 1.85 5.67 1.91-11.63 1.33-4.94 7.1-0.58 7.11-10.01 8.94-16.07 7.64zm-90.903-20.73c12.939-0.14 25.701-2.21 38.602-2.98-3.256-1.15-15.597-0.66-22.147-0.61-3.503 0.6-15.813-1.34-6.103-2.58 5.648 0.53 8.957-4.8 14.79-3.84-9.163-0.83-18.775 1.54-27.618-1.5-7.253-5.43-16.174-0.53-23.707 1.62-1.917 1.9-10.236 9.31-6.645 9.3 5.328 0.4 16.341-2.51 18.272-0.19-4.477-0.72-10.024 2.65-2.329 1.57 5.621-0.39 11.254-0.6 16.885-0.79zm56.293-3.76c-2.68-1.98-14.63 1.57-5.3 1.08 1.76-0.19 3.75-0.13 5.3-1.08zm8.56-0.47c-4.45-0.74 0.56 1.82 0 0zm13.06-0.52c7.7-1.74-7.87-0.99-10.22 0.32-3.63 1.92 9.67-0.76 10.22-0.32zm-28.06-1.48c-4.45-0.74 0.56 1.82 0 0zm20.31-0.32c0-1.12-13.22-0.12-16.11 0.84 5.36 0.33 10.81-0.02 16.11-0.84zm15.75 0.34c-5.13-0.89-0.82 1.64 0 0zm6.75-0.2c-3.83-1.87-7.05 2.26-0.73 0.61l0.53-0.28 0.2-0.33zm3-0.7c-2.77-2.14-2.37 3.81 0 0zm1.57-3.65c-0.1-3.56-3.6-8.59-6.89-6.57-3.62-8.64-3.52 4.96-6.06 7.37 3.61 0.79 10.51 3.22 12.95-0.8zm-7.07 0.14c-3.31-2.05 9.62-0.28 1.78 0.42l-1.78-0.42zm-18.5 0.52c-2.07-9.76-14.05-5.85-21.15-7.74-10.354-3.16-20.248 0.68-30.494 2.09-4.08 1.96-12.776-1.82-14.132 2.76 10.344 0.06 20.693-1.22 30.95-2.36 2.603 3.07-9.62 0.75-2.718 3.87 0.668 1.44 5.308-3.18 7.294 0.47 9.26 0.53 18.5-1.78 27.75-1.1 0.5 2.46-7.31 2.33 0.21 2.42l1.19-0.07 1.1-0.34zm10.43-4.02c4.81-5.23-2.33-8.67-4.05-2.8-6.57-4.04 9.95-11.47 2.91-12.27-2.99 6.68-1.04-3.16-1.02-5.54 1.42-2.54-1.73-3.38-0.1-6.19-8.08 1.48-8.19 14.81-7.94 21.95 0.34 4.59 6.46 8.64 10.2 4.85zm-101.03-1.31c7.51 0.16 8.743-5.09 7.943-11.38 1.311-6.77 14.06-4.71 8.829 1.17-6.664-6.89-5.411 13.4 1.398 5.36 0.196-9.49 9.971-16.06 3.262-25.5-2.755-5.63 0.53-15.95-4.646-18.89-9.202-1.41-18.037-5.65-25.256-11.49-8.017 1.35-9.146 12.96-11.538 19.7-0.373 7.82 1.01 17.16 6.154 23.11 5.357 4.71 3.614 11.23 6.355 17.54 1.263 3.26 5.205 0.79 7.499 0.38zm18.792-0.8c-4.448-0.74 0.564 1.82 0 0zm25.898-4.12c-3.399-1.39-9.306 3.58-2.458 1.5 0.276-0.34 3.035-0.63 2.458-1.5zm-8.639 0.89c-4.317-3.52 14.298-5.02 6.768-5.54-5.131 4.51-8.334-4.11-1.873-1.23 1.567-3.32-6.29-2.37 1.335-4.02 7.211-4.14-11.317 0.37-14.865-0.51-5.271-1.4 1.955 6.9-3.468 2.66-4.897-1.92-3.111 12.44 2.937 6.09 5.104-3.17 7.328 2.23 1.583 3.14 2.446 0.25 5.367 0.62 7.583-0.59zm-4.447-6.59c3.951-5.73 4.248 5.52 0 0zm-3.531-0.55c-0.973-4.88 4.826 2.39 0 0zm58.551 3.32c0.44-10.96 6.19-20.66 8.8-31.06 1.17-11.04-2.52-24.25-12.84-29.81-8.21 0.51-12.15 11.83-20.59 13.82-8.698 3.31-17.956 5.11-27.268 5.12-2.603 5.61-5.297 11.39-5.401 17.69-3.58-2-0.363-11.34 2.312-15.2 3.322-3.79-8.777-1.97-6.658 2.67 0.222 6.11-0.712 15.63 4.14 19.3 2.011-3.86 6.82-7.74 9.208-9.37 1.638 10.68-0.01-12.49 2.522-2.42-1.178 3.79 3.01 11.63 4.495 3.9 1.13-3.97-4.886-11.82-1.992-13.21 6.144 6.42 2.594 15.39 2.711 21.9 2.654 10.09 13.324 4.01 19.411 0.95 5.06-2.26 5.93-14.11 12.85-5.64 4.67 6.36-2.64 13.46-8.77 8.51-4.74 1.69-13.606 3.29-15.428 7.33 0.471 10.59 13.058 7.21 20.268 9.1 3.92-0.39 14.09 4.23 12.23-3.58zm34.94 1.59c-4.89-12.2 1.52 9.93 0 0zm-16.96-3.92c-2.6-3.35-1.88 5 0 0zm-56-1.5c-2.774-2.14-2.371 3.81 0 0zm64.71-5.28c0.92-3.14-2.04-16.77-1.15-6.41 0.75 3.25-2.6 13.17 0.93 11.8 0.13-1.79 0.16-3.59 0.22-5.39zm-62.21 3.84c-2.959-3.39-0.436 3.47 0 0zm-3.5-1c-2.712-3.69-0.955 3.19 0 0zm-10.398-6.68c4.576-1.4 6.116-4.8 0.393-1.91-3.081 2.75-12.485 4.65-4.2 0.42-8.463-2.03-5.483 8.41 1.537 2.49l1.096-0.47 1.174-0.53zm3.369 1.72c4.331-3.93-9.846 2.19-1.626 0.64l1.626-0.64zm35.859-4.42c0.18-3.99-5.49-6.46-1.99-1.75-3.07 3.26 0.49 6.1 1.99 1.75zm-98.314-5.55c-3.494-9.37-0.908 7.24 0.304 2.16l-0.094-0.99-0.21-1.17zm126.08 1.2c-2.05 0.64 1.44 4.77 0 0zm-64.1 0.23c-3.11-4.24-11.279 3.72-2.447 1.08 0.746-0.31 2.031-0.17 2.447-1.08zm59.5-3.62c-2.77-1.73-1.6 4.57 0 0zm-122.5-3.88c-2.959-3.39-0.436 3.47 0 0zm130.5-0.56c-2.77-2.14-2.37 3.81 0 0zm-130-4.5c-2.602-3.35-1.876 5 0 0zm122-2c-2.46-6.4-2.31 7.64 0 0zm-121.5-1.94c-3.767-3.33-1.525 3.5 0 0zm121.1-4.73c-3.61-0.41 1.59 5.13 0 0zm-0.14-3.34c-2.77-3-0.39 4.92 0 0zm-60.46-1.66c5.724-0.86-6.999-1.79-0.031-2.45 3.913 0.09 13.753-3.93 13.982-1.5-1.355 0.92-12.815 2.34-8.568 2.49 6.615 0.34 13.661-1.21 19.237-4.53-3.05 1.02-12.781 2.33-4.851-0.51 4.351 0.84 14.061-6.46 4.381-3.56-19.26 5.44-39.542 5.99-59.4 4.94-10.53-1.54 4.043 5.66 7.932 5.07 9.007 1.28 18.341 1.83 27.318 0.05zm60-1.27c-2.69-4.03-2.36 3.89 0 0zm-1-3.56c-2.77-2.14-2.37 3.81 0 0zm-70.812-3.12c-4.448-0.74 0.564 1.82 0 0zm19-1c-4.448-0.74 0.564 1.82 0 0zm5.312-3.28c5.387-0.55 16.1-2.04 15.78-7.49-12.05 1.91-24.214 4.52-36.495 3.63-2.026-2.19 9.477-2.1 12.554-2.06 8.66-0.5 17.451-1.64 25.761-4.02 1.63-4.55-10.036 0.72-13.027-0.13-4.326-0.84-14.217 3.34-15.632 0.37 7.25-5.62-9.777-1.04-13.255-2.2-8.996-0.35-17.876 1.69-26.841 0.15-5.169 0.25-17.562-5.41-11.16 4.53 2.407 8.89 12.307 8.62 19.751 8.98 14.189 0.81 28.478 0.07 42.564-1.76zm7.5-4.04c3.36-1.43 8.42-0.64 2.35 0.6-1.817 0.33-7.168 0.49-2.608-0.52l0.258-0.08zm-29.5-4c6.515-3.95 4.987 4.05 0 0zm40.5 3.44c-2.77-2.14-2.37 3.81 0 0zm2-2.94c1.99-5.27-7.28 4.64 0 0zm4-1.56c-2.41-2.35-2.48 3.74 0 0zm-2-3.13c-3.09-2.28-3.36 4.99 0 0zm5.24-0.23c4.77-4.23-8.19 2.91-0.79-0.07l0.79 0.07zm-22.039-0.67c4.579-1.22 17.669-3.62 17.059-5.61-8.34 2.58-17.184 3.7-25.381 6.55 2.785 0.15 5.584-0.45 8.322-0.94zm-10.506-1.87c12.624-1.13 25.305-3.8 36.835-9.09-5.36-1.78-13.63 3.59-20.3 4.03-9.898 2.27-20.023 3.18-30.078 4.35-5.123 4.42 7.681 0.87 10.404 1.03 1.046-0.11 2.092-0.22 3.139-0.32zm-37.195-0.55c-3.213-1.34-18.891-0.64-7.429 0.38 2.418-0.03 5.168 0.26 7.429-0.38zm15.75-0.21c-3.46-0.67-10.828 0.5-3.25 0.4 0.034-0.02 6.231 0.02 3.25-0.4zm14.294-3.35c-6.847-1.63-14.939 0.1-22.244 0.23-9.66 0.89 6.823 0.87 9.983 0.84 4.059-0.23 8.37 0.26 12.261-1.07zm-30.544-0.88c10.523-2.36-18.082 0.81-5.054 0.65 1.692-0.15 3.38-0.36 5.054-0.65zm48-0.75c8.58-2.42-11.938-3.15-14.164 1.29 4.729 0.11 9.477-0.71 14.164-1.29zm-68-1.3c1.599-3.26-8.306 1.32-1.45 0.71l1.45-0.71zm19.5-0.61c9.682-1.53 19.491-1.72 29.231-2.5 3.684-7.5-10.721-2.71-15.267-3.33-4.552 0.76-13.767-0.01-15.366 2.63 3.659 0.34 16.336-0.81 6.285 1.27-5.224 1.35-16.631 1.29-18.451 3.48 4.546-0.24 9.052-1 13.568-1.55zm20.228 0.88c-3.782-0.62-11.525 0.5-3.228 0.4 0.082 0 6.596 0 3.228-0.4zm-26.728-3.27c5.946-1.6-5.073-0.55-6.869 0.35-5.498 1.02 7.695 0.13 6.869-0.35zm74.78-0.67c4.7-1.48 3.1-2.09-0.94-2.36-6.66-0.33-16.345-3.44-20.84 2.57 6.26 3.06 15.08 1.48 21.78-0.21zm36.22 112.17c3.62-4.61 2.65 3.2-0.71 1.21l0.71-1.21zm-64.5-2.33c16.39-3 33.23-2.69 49.79-4.52 3.37-1.44 10.21 1.03 3.04 1.39-17.62 0.89-35.18 3.17-52.808 3.67l-0.273-0.21 0.251-0.33zm96.97-2.33c-1.02-3.06 2.54-9.47 3.67-2.98 2.76-6.84 5.35 6.63 5.14-2.2 2.46-2.03 0.89 5.76 4.45 1.96 1.11 5.59-0.67 7.23-3.44 3.67-1.59 4.57-8.02-5.51-7.51 2.36-1.41 0.2-2.04-1.8-2.31-2.81zm-4.03-1.59c-0.72-3.94 4.77-11.08 2.62-3.16 0.34 3.15-3.64 11.04-2.62 3.16zm19.11-0.5c-2.1-4.66 2.71-11.45 4.34-14.09 0.42 5.51-5.69 10.34-2.21 15.21-0.87 0.41-1.87-0.29-2.13-1.12zm3.92-1.8c-0.97-4.88 4.82 2.39 0 0zm-41.87-4.79c0.97-6.46 4.29 2.24 0 0zm27.4-0.16c2.69-4.03 2.36 3.89 0 0zm-0.85-4.55c2.11-6 4.34 1.87 0.1 1.2l-0.1-1.2zm-22.57-0.64c-0.04-3.45-4.72-12.63-2.3-13.21 0.91 1.98 6.16 15.47 2.3 13.21zm30.98-2.06c2.11-7.72 3.26 3.89-0.21 1.61l0.21-1.61zm121.99 0.37c3.72-1.06 16.2-3.34 15.18 0.18-4.78 0.73-10.88 1.4-15.18-0.18zm-147.05-4.12c3.77-3.33 1.52 3.5 0 0zm-4.4-1.59c-1.16-3.96-0.89-11.05 1.27-2.99 3.72 0.59-1.77 6.79-1.27 2.99zm34.65 1.02c-1.6-4.07-0.28-14.77 0.95-4.66-0.11 0.82 0.78 5.34-0.95 4.66zm-11.75-5.37c2.35-5.54 2.73 3.92 0 0zm-31.87-9.45c-1.81-2.89-2.44-9.77 0.48-2.95 1.7 2.41 3.4 11.64 0 4.07l-0.48-1.12zm112.79 5.2c-1.78-2.61-2.09-16.3 0.34-7.34 1.62 1.54 2.57 6.88-0.34 7.34zm2.81-6.06c-1.78-9.22 4.62 2.13 1.08 2.99-0.67-0.85-0.89-1.95-1.08-2.99zm-112.7-4.38c0.22-5.18 5.44-4.19 1.5 0.19-0.71 1.46-1.87 1.98-1.5-0.19zm116.64-0.04c-2.46-3.69 1.37-8 2.08-1.76 1.21 1.94-0.7 3.26-2.08 1.76zm-119.67-4.12c4.64-8.45 3.13 2.91 0 0zm121.04-3.14c-4.36-8.5 7.17 2.74 1.01 1.36l-1.01-1.36zm-123.04-0.02c-0.52-3.18 5.97-9.52 2.84-2.55 0.18 0.8-2.15 5.58-2.84 2.55zm35.05-0.6c0.01-2.36 4.17-11.77 2.48-4.69 0.15 0.91-2.08 9.24-2.48 4.69zm-38.05-2.83c-0.11-3.53 7.19-12.95 3.98-4.36-0.86 1.05-1.89 5.96-3.98 4.36zm126.51-3.61c-3.63-6.31 6.88 4.77 0 0zm-0.56-6.1c-3.27-7.34 10.13 5.14 1.44 1.48l-0.83-0.67-0.61-0.81zm-20.4 0.18c0.08-5.15 4.64 2.23 0 0zm18.45-5.34c-6.2-1.7 5.62-2.83 5.87 0.99-1.89 0.64-4.09-0.36-5.87-0.99zm-1.76-4.41c-2.32-5.92 11.39 2.62 1.63 0.37l-1.63-0.37zm-2.93-4.79c2.51-4.08 10.86 1.24 3.17 1.15-0.88-0.21-2.9 0.1-3.17-1.15zm-3.75-1.46c-0.4-5.19 12.36-5.15 4.53-1.22-1.37 0.47-3.01 1.99-4.53 1.22zm-2.56-3.42c1.23-4.27 9.31-4.27 3.08-0.03-0.89 0.77-3.11 2.43-3.08 0.03zm-113-33.11c3.05-5.86 1.89 4.53 0 0zm8-9.56c2.69-4.03 2.36 3.89 0 0zm12-13c4.04-4.14 6.24 3.9 0 0zm-11-5c2.69-4.03 2.36 3.89 0 0zm7-2c2.32-3.31 3.54 3.66 0 0zm-42.25-10.08c-5.45-7.31 8.14 2.94 0 0zm32.25-29.92c1.05-3.25 2.52 3.47 0 0zm32-47.81c4.54-5.854 2.77 2.877 0 0zm13.03-8.69c0.56-7.047 3.82-2.144 0.18 1.337l-0.18-1.337zm-8.53-0.5c4.34-3.7 0.51 3.383 0 0zm3.97-9.044c-0.06-3.52 7.1-0.335 0.86 0.504l-0.5-0.163-0.36-0.341zm1.16-3.747c-0.04-4.714 6.52-2.477 0.87 0.275l-0.51 0.011-0.36-0.286zm2.37-6.209c3.54-3.662 2.32 3.307 0 0zm0-3.348c6.3-7.96 3.64 3.751 0 0zm3-9.579c4.52-1.723-3.3-4.617 2.87-4.943 2.86 1.227-1.57 8.732-2.87 4.943zm1.42-9.698c2.3-6.23 3.43-2.669 2.95-0.454 4.24 0.313-4.43 6.309-2.95 0.454zm-4.72-5.862c5.13-9.342-1.32 8.41-0.58 1.354l0.58-1.354zm6.27-2.635c8.75-4.116-4.95 6.124 0 0zm-1.33-1.643c0.15-4.719 7.55-4.588 1.82-0.37-0.46 0.239-1.28 0.953-1.82 0.37zm0.36-6.38c0.26-7.453 7.22-3.959 2 0.645-1.05 1.591-2.55 1.577-2-0.645zm-6-2.644c-0.47-4.316 10.47-13.083 4.81-5.639-1.65 1.512-2.8 5.15-4.81 5.639z"/>
  </g>
</svg>